<svg xmlns="http://www.w3.org/2000/svg" viewBox="0 0 206.29 276.22"><defs><style>.cls-1{isolation:isolate;}.cls-2{fill:#a97c50;}.cls-3{fill:#8b5e3c;}.cls-4{fill:#603e29;}.cls-5{fill:#93cb2f;}.cls-6{fill:#81b329;}.cls-7{fill:#709c24;}.cls-8{fill:#8abf2c;}.cls-9{fill:#7fba19;}.cls-10{fill:#754c29;}.cls-11{fill:#8ec42d;}.cls-12{fill:#7dad28;}</style></defs><title>Asset 4</title><g id="Layer_2" data-name="Layer 2"><g id="Objects"><g class="cls-1"><polygon class="cls-2" points="206.29 202.98 103.58 262.78 0 202.98 102.91 143.18 206.29 202.98"/><polygon class="cls-3" points="206.29 202.98 206.29 216.41 103.58 276.22 103.58 262.78 206.29 202.98"/><polygon class="cls-4" points="103.58 262.78 103.58 276.22 0 216.41 0 202.98 103.58 262.78"/></g><g class="cls-1"><polygon class="cls-5" points="206.29 193.63 103.58 253.44 0 193.63 102.91 133.83 206.29 193.63"/><polygon class="cls-6" points="206.29 193.63 206.29 207.07 103.58 266.87 103.58 253.44 206.29 193.63"/><polygon class="cls-7" points="103.58 253.44 103.58 266.87 0 207.07 0 193.63 103.58 253.44"/></g><path class="cls-8" d="M100.19,224.24c1.85,1.07,1.86,2.8,0,3.87a7.35,7.35,0,0,1-6.68,0c-1.85-1.07-1.86-2.8,0-3.87A7.35,7.35,0,0,1,100.19,224.24Z"/><ellipse class="cls-8" cx="176.08" cy="190.16" rx="2.74" ry="4.72" transform="translate(-14.58 365.7) rotate(-89.84)"/><path class="cls-8" d="M154.74,193.92c1.86,1.07,1.86,2.8,0,3.87a7.35,7.35,0,0,1-6.68,0c-1.85-1.07-1.87-2.8,0-3.87A7.35,7.35,0,0,1,154.74,193.92Z"/><ellipse class="cls-8" cx="33.75" cy="193.01" rx="2.74" ry="4.72" transform="translate(-159.36 226.2) rotate(-89.84)"/><path class="cls-8" d="M56.05,198.66c1.85,1.07,1.86,2.8,0,3.87a7.35,7.35,0,0,1-6.68,0c-1.85-1.07-1.86-2.8,0-3.87A7.35,7.35,0,0,1,56.05,198.66Z"/><path class="cls-8" d="M83.6,156c1.85,1.07,1.86,2.8,0,3.87a7.35,7.35,0,0,1-6.68,0c-1.85-1.07-1.86-2.8,0-3.87A7.38,7.38,0,0,1,83.6,156Z"/><path class="cls-8" d="M132.93,160.72c1.85,1.07,1.86,2.8,0,3.87a7.41,7.41,0,0,1-6.68,0c-1.85-1.07-1.86-2.8,0-3.87A7.35,7.35,0,0,1,132.93,160.72Z"/><path class="cls-8" d="M123.38,228.94c1.85,1.07,1.86,2.8,0,3.87a7.35,7.35,0,0,1-6.68,0c-1.85-1.07-1.86-2.8,0-3.87A7.35,7.35,0,0,1,123.38,228.94Z"/><ellipse class="cls-9" cx="103.39" cy="196.23" rx="21.16" ry="36.52" transform="translate(-93.14 299.06) rotate(-89.84)"/><path class="cls-10" d="M101.36,45.44c.2,0,.5-.06.78-.11l.85-.15c.58-.11,1.16-.21,1.74-.36,1.17-.25,2.33-.58,3.49-.91s2.31-.74,3.46-1.14,2.28-.86,3.39-1.35,2.24-1,3.33-1.54l3.24-1.74,3.13-2a15.69,15.69,0,0,0,1.52-1l1.49-1.09,1.49-1.1,1.39-1.22c.92-.82,1.91-1.58,2.77-2.47L136,26.6l.65-.67.58-.73,1.18-1.45,1.18-1.46.59-.73.51-.78,2.08-3.14a28.56,28.56,0,0,0,1.88-3.27L146.46,11l.92.38L145.92,15a31,31,0,0,1-1.59,3.53l-1.81,3.42-.46.86-.53.82-1.07,1.62-1.07,1.63-.54.82-.6.77-2.44,3.06c-.81,1-1.77,1.92-2.65,2.89l-1.36,1.43-1.46,1.32-1.47,1.32a16.63,16.63,0,0,1-1.51,1.27l-3.13,2.42-3.3,2.2c-1.12.71-2.28,1.34-3.42,2s-2.36,1.22-3.54,1.83-2.42,1.11-3.66,1.62-2.49,1-3.78,1.4c-.63.22-1.29.42-2,.61-.32.1-.66.19-1,.28s-.67.18-1.1.26Z"/><path class="cls-10" d="M180.55,85.14a28.46,28.46,0,0,1-5,2.29,33,33,0,0,1-5.24,1.41,42.5,42.5,0,0,1-10.8.55,50.61,50.61,0,0,1-5.36-.66l-1.31-.25a101.45,101.45,0,0,0,9.93-12c1.11-1.72,2.3-3.36,3.33-5.12s2.1-3.48,3-5.24l5.85-10.51a.5.5,0,0,0-.85-.53L167.36,65c-1.12,1.67-2.32,3.24-3.48,4.84s-2.47,3.08-3.69,4.62a97.48,97.48,0,0,1-17.31,15.82c-1.44,1.09-3,2-4.49,3l0-.06c-.39-.59-.78-1.2-1.14-1.83a42.73,42.73,0,0,1-2-3.85,40.78,40.78,0,0,1-2.82-8.32,31.44,31.44,0,0,1-.71-8.83l.18-2.25.41-2.22c.08-.38.13-.76.23-1.12l.33-1.09.68-2.2,0-.06a.5.5,0,0,0-.92-.37l-1.1,2.11-.55,1.07c-.17.36-.29.74-.44,1.11l-.86,2.27L129,70a35.08,35.08,0,0,0-.95,9.76,45.52,45.52,0,0,0,1.46,9.81A48.79,48.79,0,0,0,131,94.31c.28.79.6,1.57.94,2.35l.12.27c-1.4.72-2.79,1.45-4.23,2.1-1.77.77-3.49,1.63-5.31,2.27l-2.69,1c-.9.33-1.82.6-2.73.91s-1.81.62-2.74.87l-2.77.74c-1.83.55-3.73.85-5.58,1.28-.93.22-1.88.32-2.82.49l-1.41.22-.7.11-.35.06-.18,0h-.15c.41,2.26-1-5,.91,5.07s.53,2.8,1,5h0l0,0,.1,0,.19-.05.38-.1.77-.2,1.53-.4c1-.28,2-.49,3-.84,2-.66,4-1.2,6-2l2.94-1.1c1-.37,1.93-.83,2.89-1.23s1.92-.82,2.86-1.28l2.8-1.4c1.89-.89,3.66-2,5.48-3s3.52-2.21,5.27-3.31,3.41-2.36,5-3.64,3.27-2.53,4.79-3.93c1.18-1,2.32-2.09,3.46-3.17,1.31.23,2.6.38,3.92.51a54.87,54.87,0,0,0,5.73.21,44.35,44.35,0,0,0,11.29-1.55,32.65,32.65,0,0,0,5.36-1.94,29.46,29.46,0,0,0,4.92-2.8,30.39,30.39,0,0,0,7.82-8A29.72,29.72,0,0,1,180.55,85.14Z"/><path class="cls-10" d="M34.66,49.79a24,24,0,0,0,4.21,1.94,26.46,26.46,0,0,0,4.46,1.2,35.75,35.75,0,0,0,9.18.47,40.85,40.85,0,0,0,4.56-.56l1.11-.21a85.6,85.6,0,0,1-8.44-10.22c-.94-1.46-2-2.86-2.84-4.35s-1.78-3-2.59-4.46l-5-8.94a.42.42,0,0,1,.72-.44l5.81,8.41c1,1.42,2,2.76,3,4.12s2.11,2.62,3.15,3.93A82.61,82.61,0,0,0,66.7,54.13c1.22.93,2.54,1.73,3.82,2.57l0-.05c.34-.51.67-1,1-1.55.63-1.06,1.2-2.16,1.73-3.28a34.46,34.46,0,0,0,2.4-7.07,27,27,0,0,0,.61-7.52l-.16-1.91-.35-1.89c-.06-.32-.11-.64-.19-1l-.29-.93-.58-1.87v-.05a.42.42,0,0,1,.78-.32l.94,1.8.47.91c.14.31.25.63.37.95L78,34.89l.53,2a29.91,29.91,0,0,1,.82,8.29,39.45,39.45,0,0,1-1.24,8.35,42.29,42.29,0,0,1-1.29,4c-.24.67-.51,1.34-.8,2,0,.08-.07.16-.1.23,1.19.61,2.37,1.24,3.59,1.79,1.51.65,3,1.38,4.52,1.93l2.29.88c.76.29,1.55.52,2.32.78s1.54.52,2.33.73l2.36.64c1.56.46,3.17.72,4.75,1.08.78.2,1.59.28,2.39.42l1.2.19.6.1.3,0,.14,0h.14c-.35,1.92.8-4.3-.78,4.31s-.45,2.38-.82,4.3h-.06l-.08,0-.16,0-.33-.09-.65-.17-1.3-.34c-.86-.23-1.74-.42-2.58-.71-1.7-.56-3.43-1-5.09-1.69L88.48,73c-.83-.32-1.63-.7-2.45-1s-1.64-.7-2.44-1.08l-2.38-1.19c-1.6-.76-3.11-1.7-4.66-2.55s-3-1.88-4.48-2.82-2.9-2-4.28-3.1S65,59.09,63.72,57.9q-1.5-1.32-2.94-2.7c-1.12.19-2.21.33-3.34.44a46.53,46.53,0,0,1-4.87.18A38.07,38.07,0,0,1,43,54.5a28.43,28.43,0,0,1-4.55-1.65,25.43,25.43,0,0,1-4.19-2.38,26,26,0,0,1-6.65-6.78A25.37,25.37,0,0,0,34.66,49.79Z"/><path class="cls-10" d="M34.44,102.5a24.34,24.34,0,0,0,4.21,2,28.79,28.79,0,0,0,4.46,1.2,35.78,35.78,0,0,0,9.18.47c1.53-.11,3.06-.3,4.56-.56l1.12-.22a84.64,84.64,0,0,1-8.45-10.21c-.94-1.46-2-2.86-2.83-4.35s-1.79-3-2.59-4.46l-5-8.94a.42.42,0,0,1,.13-.55.42.42,0,0,1,.59.1l5.82,8.42c1,1.42,2,2.75,3,4.12s2.11,2.62,3.15,3.93a83,83,0,0,0,14.72,13.45c1.22.93,2.54,1.73,3.82,2.56l0,0c.33-.5.66-1,1-1.55.63-1,1.2-2.15,1.73-3.27a34.35,34.35,0,0,0,2.4-7.08A26.94,26.94,0,0,0,76.05,90L75.9,88l-.36-1.89c-.06-.32-.11-.64-.19-1l-.28-.92-.58-1.87,0-.05a.43.43,0,0,1,.21-.5.42.42,0,0,1,.57.18l.94,1.8.47.91c.14.3.25.63.37.94l.74,1.93.53,2a29.87,29.87,0,0,1,.81,8.29,38.73,38.73,0,0,1-1.24,8.34c-.37,1.37-.78,2.73-1.28,4.06-.25.67-.52,1.34-.81,2,0,.08-.07.15-.1.23,1.19.61,2.38,1.24,3.59,1.79,1.51.65,3,1.38,4.52,1.93l2.29.88c.77.28,1.55.52,2.32.77s1.55.53,2.33.74l2.36.64c1.56.46,3.17.72,4.75,1.08.78.19,1.6.28,2.39.42l1.2.19.6.09.3,0,.15,0h.13c-.35,1.92.8-4.3-.78,4.3s-.45,2.39-.81,4.3H101l-.09,0-.16,0-.32-.08-.65-.17-1.31-.34c-.86-.24-1.73-.42-2.58-.71-1.7-.56-3.43-1-5.08-1.69l-2.5-1c-.84-.31-1.64-.7-2.46-1s-1.63-.7-2.43-1.09L81,122.42c-1.6-.75-3.11-1.69-4.65-2.55s-3-1.88-4.49-2.81-2.89-2-4.27-3.1-2.78-2.15-4.08-3.34q-1.5-1.32-2.94-2.7c-1.12.19-2.21.33-3.33.44-1.63.14-3.25.2-4.87.18a38.4,38.4,0,0,1-9.61-1.32,29.18,29.18,0,0,1-4.56-1.65A25,25,0,0,1,34,103.18a25.67,25.67,0,0,1-6.66-6.77A25.31,25.31,0,0,0,34.44,102.5Z"/><g class="cls-1"><path class="cls-3" d="M102.27,0l4.48,198a2.17,2.17,0,0,1-1.35,2,8.47,8.47,0,0,1-7.54,0,2.2,2.2,0,0,1-1.38-2L101.13,0Z"/></g><path class="cls-10" d="M106.75,198,102.27,0h-.6V200.9a7.62,7.62,0,0,0,3.73-.88A2.17,2.17,0,0,0,106.75,198Z"/><path class="cls-11" d="M55.33,69.6S59.69,63.29,66,62.43s12.21,4,12.21,4-4.35,6.3-10.68,7.17S55.33,69.6,55.33,69.6Z"/><path class="cls-12" d="M66,62.43c-6.32.86-10.68,7.17-10.68,7.17l22.89-3.13S72.33,61.56,66,62.43Z"/><path class="cls-11" d="M79.18,39.76s-.21-7.67,4.37-12.1,12.24-4,12.24-4,.22,7.67-4.37,12.1S79.18,39.76,79.18,39.76Z"/><path class="cls-12" d="M83.55,27.66c-4.58,4.43-4.37,12.1-4.37,12.1L95.79,23.69S88.14,23.22,83.55,27.66Z"/><path class="cls-11" d="M110.28,46.69s7.69-1.59,13,2.24,6.19,11.65,6.19,11.65-7.69,1.59-13-2.24S110.28,46.69,110.28,46.69Z"/><path class="cls-12" d="M123.28,48.93c-5.31-3.83-13-2.24-13-2.24l19.19,13.89S128.58,52.77,123.28,48.93Z"/><path class="cls-11" d="M148.23,52.33s7.7-1.59,13,2.24,6.2,11.65,6.2,11.65-7.7,1.59-13-2.24S148.23,52.33,148.23,52.33Z"/><path class="cls-12" d="M161.23,54.57c-5.3-3.83-13-2.24-13-2.24l19.2,13.89S166.53,58.41,161.23,54.57Z"/><path class="cls-11" d="M138.51,101.09s7.7-1.59,13,2.24,6.2,11.64,6.2,11.64-7.7,1.6-13-2.24S138.51,101.09,138.51,101.09Z"/><path class="cls-12" d="M151.51,103.33c-5.3-3.83-13-2.24-13-2.24L157.71,115S156.81,107.16,151.51,103.33Z"/><path class="cls-11" d="M126.91,104.85s3.61,6.77,1.48,12.78-9.2,9-9.2,9-3.6-6.77-1.47-12.78S126.91,104.85,126.91,104.85Z"/><path class="cls-12" d="M128.39,117.63c2.13-6-1.48-12.78-1.48-12.78l-7.72,21.78S126.25,123.65,128.39,117.63Z"/><path class="cls-11" d="M75.62,116.9s-7.32-2.88-13.19,0-8.09,10.42-8.09,10.42,7.32,2.88,13.19,0S75.62,116.9,75.62,116.9Z"/><path class="cls-12" d="M62.43,116.9c5.87-2.88,13.19,0,13.19,0L54.34,127.32S56.55,119.77,62.43,116.9Z"/><path class="cls-11" d="M62,52s6.32-4.33,7.21-10.65-4-12.23-4-12.23S58.9,33.42,58,39.74,62,52,62,52Z"/><path class="cls-12" d="M69.21,41.32C68.32,47.64,62,52,62,52l3.22-22.88S70.1,35,69.21,41.32Z"/><path class="cls-11" d="M101,17.38S98.89,9.81,93,6.87s-13.19-.14-13.19-.14,2.13,7.57,8,10.51S101,17.38,101,17.38Z"/><path class="cls-12" d="M93,6.87c5.85,2.94,8,10.51,8,10.51L79.85,6.73S87.2,3.93,93,6.87Z"/><path class="cls-11" d="M132.8,98.17s-2.13-7.56-8-10.5-13.19-.15-13.19-.15,2.13,7.57,8,10.51S132.8,98.17,132.8,98.17Z"/><path class="cls-12" d="M124.83,87.67c5.84,2.94,8,10.5,8,10.5L111.64,87.52S119,84.73,124.83,87.67Z"/><path class="cls-11" d="M100.85,40.88s2.13-7.57,8-10.51S122,30.23,122,30.23s-2.13,7.57-8,10.51S100.85,40.88,100.85,40.88Z"/><path class="cls-12" d="M108.83,30.37c-5.85,2.94-8,10.51-8,10.51L122,30.23S114.67,27.43,108.83,30.37Z"/><path class="cls-11" d="M86,65s6.32-4.33,7.21-10.65-4-12.23-4-12.23S82.9,46.42,82,52.74,86,65,86,65Z"/><path class="cls-12" d="M93.21,54.32C92.32,60.64,86,65,86,65l3.22-22.88S94.1,48,93.21,54.32Z"/><path class="cls-11" d="M49.22,38S44,43.68,37.66,43.68,26.11,38,26.11,38s5.17-5.66,11.55-5.66S49.22,38,49.22,38Z"/><path class="cls-12" d="M37.66,43.68C44,43.68,49.22,38,49.22,38H26.11S31.28,43.68,37.66,43.68Z"/><path class="cls-11" d="M152.67,88.68s2.43-7.27,8.26-9.86,12.86.49,12.86.49-2.44,7.27-8.27,9.86S152.67,88.68,152.67,88.68Z"/><path class="cls-12" d="M160.93,78.82c-5.83,2.59-8.26,9.86-8.26,9.86l21.12-9.37S166.76,76.24,160.93,78.82Z"/><path class="cls-11" d="M182.44,84.83s.26-7.66,5.11-11.8S200,69.83,200,69.83s-.26,7.66-5.11,11.8S182.44,84.83,182.44,84.83Z"/><path class="cls-12" d="M187.55,73c-4.85,4.14-5.11,11.8-5.11,11.8l17.57-15S192.41,68.88,187.55,73Z"/><path class="cls-11" d="M171.75,91.26s6.62-3.86,12.71-2,9.35,8.83,9.35,8.83-6.62,3.87-12.72,2S171.75,91.26,171.75,91.26Z"/><path class="cls-12" d="M184.46,89.3c-6.09-1.9-12.71,2-12.71,2l22.06,6.87S190.55,91.19,184.46,89.3Z"/><path class="cls-11" d="M132.16,85.21S131,77.64,135,72.65s11.63-5.49,11.63-5.49,1.19,7.58-2.79,12.56S132.16,85.21,132.16,85.21Z"/><path class="cls-12" d="M135,72.65c-4,5-2.79,12.56-2.79,12.56l14.42-18S138.93,67.67,135,72.65Z"/><path class="cls-11" d="M48.91,55.11s-7.09-3.39-13.15-.93S27,64,27,64s7.09,3.39,13.15.93S48.91,55.11,48.91,55.11Z"/><path class="cls-12" d="M35.76,54.18c6.06-2.46,13.15.93,13.15.93L27,64S29.69,56.63,35.76,54.18Z"/><path class="cls-11" d="M46,87.72s-5.3-5.81-11.84-5.82-11.85,5.78-11.85,5.78,5.29,5.81,11.83,5.82S46,87.72,46,87.72Z"/><path class="cls-12" d="M34.12,81.9c6.54,0,11.84,5.82,11.84,5.82l-23.69,0S27.58,81.88,34.12,81.9Z"/><path class="cls-11" d="M61.13,103.12s5.88-5.21,6-11.76-5.62-11.93-5.62-11.93-5.88,5.22-6,11.76S61.13,103.12,61.13,103.12Z"/><path class="cls-12" d="M67.11,91.36c-.1,6.55-6,11.76-6,11.76l.36-23.69S67.21,84.82,67.11,91.36Z"/><path class="cls-11" d="M51.74,108.17s-7.48-2.42-13.17.82-7.42,10.9-7.42,10.9,7.48,2.42,13.16-.82S51.74,108.17,51.74,108.17Z"/><path class="cls-12" d="M38.57,109c5.69-3.24,13.17-.82,13.17-.82L31.15,119.89S32.89,112.23,38.57,109Z"/><path class="cls-11" d="M89,120.07s4.52-6.43,3.11-12.81-8.22-10.32-8.22-10.32-4.52,6.43-3.11,12.82S89,120.07,89,120.07Z"/><path class="cls-12" d="M92.14,107.26c1.41,6.38-3.11,12.81-3.11,12.81L83.92,96.94S90.73,100.87,92.14,107.26Z"/><path class="cls-11" d="M141.64,20.63s-2.45-7.47.77-13.16S153.28,0,153.28,0s2.45,7.47-.77,13.17S141.64,20.63,141.64,20.63Z"/><path class="cls-12" d="M142.41,7.47c-3.22,5.69-.77,13.16-.77,13.16L153.28,0S145.62,1.77,142.41,7.47Z"/><path class="cls-11" d="M130.63,34.72s-5.44-5.68-5-12.2,6.57-11.44,6.57-11.44,5.44,5.67,5,12.2S130.63,34.72,130.63,34.72Z"/><path class="cls-12" d="M125.62,22.52c-.43,6.52,5,12.2,5,12.2l1.56-23.64S126.05,16,125.62,22.52Z"/><path class="cls-11" d="M172,59.6s-5.44-5.67-5-12.2S173.58,36,173.58,36s5.44,5.67,5,12.2S172,59.6,172,59.6Z"/><path class="cls-12" d="M167,47.4c-.43,6.53,5,12.2,5,12.2L173.58,36S167.44,40.87,167,47.4Z"/></g></g></svg>