<svg xmlns="http://www.w3.org/2000/svg" viewBox="0 0 206.29 241.2"><defs><style>.cls-1{isolation:isolate;}.cls-2{fill:#a97c50;}.cls-3{fill:#8b5e3c;}.cls-4{fill:#603e29;}.cls-5{fill:#93cb2f;}.cls-6{fill:#81b329;}.cls-7{fill:#709c24;}.cls-8{fill:#7fba19;}.cls-9{fill:#8abf2c;}.cls-10{fill:#7d5436;}.cls-11{fill:#8ec42d;}.cls-12{fill:#6d9623;}.cls-13{fill:#79a827;}.cls-14{fill:#86ba2a;}</style></defs><title>Asset 2</title><g id="Layer_2" data-name="Layer 2"><g id="Objects"><g class="cls-1"><polygon class="cls-2" points="206.29 167.97 103.58 227.77 0 167.97 102.91 108.17 206.29 167.97"/><polygon class="cls-3" points="206.29 167.97 206.29 181.4 103.58 241.21 103.58 227.77 206.29 167.97"/><polygon class="cls-4" points="103.58 227.77 103.58 241.21 0 181.4 0 167.97 103.58 227.77"/></g><g class="cls-1"><polygon class="cls-5" points="206.29 158.62 103.58 218.42 0 158.62 102.91 98.82 206.29 158.62"/><polygon class="cls-6" points="206.29 158.62 206.29 172.05 103.58 231.86 103.58 218.42 206.29 158.62"/><polygon class="cls-7" points="103.58 218.42 103.58 231.86 0 172.06 0 158.62 103.58 218.42"/></g><ellipse class="cls-8" cx="104.9" cy="159.38" rx="21.16" ry="36.52" transform="translate(-54.78 263.83) rotate(-89.84)"/><ellipse class="cls-8" cx="85.51" cy="148.89" rx="13.19" ry="22.77" transform="translate(-63.62 233.98) rotate(-89.84)"/><ellipse class="cls-8" cx="130.05" cy="151.21" rx="9.33" ry="16.11" transform="translate(-21.53 280.84) rotate(-89.84)"/><path class="cls-9" d="M100.19,189.23c1.85,1.07,1.86,2.8,0,3.87a7.35,7.35,0,0,1-6.68,0c-1.85-1.07-1.86-2.8,0-3.87A7.35,7.35,0,0,1,100.19,189.23Z"/><path class="cls-9" d="M179.41,153.21c1.85,1.07,1.86,2.81,0,3.87a7.35,7.35,0,0,1-6.68,0c-1.85-1.06-1.86-2.8,0-3.87A7.41,7.41,0,0,1,179.41,153.21Z"/><path class="cls-9" d="M154.74,158.91c1.86,1.06,1.86,2.8,0,3.87a7.41,7.41,0,0,1-6.68,0c-1.85-1.07-1.86-2.81,0-3.87A7.35,7.35,0,0,1,154.74,158.91Z"/><path class="cls-9" d="M37.08,156.06c1.85,1.07,1.86,2.8,0,3.87a7.35,7.35,0,0,1-6.68,0c-1.85-1.07-1.86-2.8,0-3.87A7.37,7.37,0,0,1,37.08,156.06Z"/><path class="cls-9" d="M56.05,163.65c1.85,1.07,1.86,2.8,0,3.87a7.35,7.35,0,0,1-6.68,0c-1.85-1.07-1.86-2.8,0-3.87A7.35,7.35,0,0,1,56.05,163.65Z"/><path class="cls-9" d="M83.6,121c1.85,1.07,1.86,2.8,0,3.87a7.35,7.35,0,0,1-6.68,0c-1.85-1.07-1.86-2.8,0-3.87A7.35,7.35,0,0,1,83.6,121Z"/><path class="cls-9" d="M132.93,125.7c1.85,1.07,1.86,2.81,0,3.87a7.35,7.35,0,0,1-6.68,0c-1.85-1.06-1.86-2.8,0-3.87A7.41,7.41,0,0,1,132.93,125.7Z"/><path class="cls-9" d="M123.38,193.93c1.85,1.07,1.86,2.8,0,3.87a7.35,7.35,0,0,1-6.68,0c-1.85-1.07-1.86-2.8,0-3.87A7.35,7.35,0,0,1,123.38,193.93Z"/><path class="cls-3" d="M136.12,79.53h0a52.4,52.4,0,0,0-23,18.29l-.7,1-1.59-23.76-14,0-1.3,18.06a25.88,25.88,0,0,0-10.54-7.92,1.05,1.05,0,0,0-1.11,1.75l3.25,3A26.21,26.21,0,0,1,93,97.82l1.89,3.94-4,55.59a8.13,8.13,0,0,0,3.41,7c5.09,4,13.63,4,18.68,0a8.11,8.11,0,0,0,3.37-6.86l-2.63-39.36L120,105a52.2,52.2,0,0,1,11.86-16l6.54-6A2.13,2.13,0,0,0,136.12,79.53Z"/><path class="cls-10" d="M116.32,157.44l-2.63-39.36L120,105a52.2,52.2,0,0,1,11.86-16l6.54-6a2.13,2.13,0,0,0-2.24-3.54h0a52.4,52.4,0,0,0-23,18.29l-.7,1-1.59-23.76-7.1,0v92.29a15,15,0,0,0,9.23-3A8.11,8.11,0,0,0,116.32,157.44Z"/><path class="cls-6" d="M145.72,40.8a8.27,8.27,0,0,0-.78-9.49C144.61,14,126.54,0,104.27,0S64.06,13.88,63.62,31.13A8.26,8.26,0,0,0,64.8,43.2a11.49,11.49,0,0,0,1,2.9A11.59,11.59,0,0,0,81.07,62.77a11.54,11.54,0,0,0,5.8,1.56c.36,0,.72,0,1.07,0a19.35,19.35,0,0,0,34.63,0h.12a11.59,11.59,0,0,0,10.24-6.15,12,12,0,0,0,2.95.39,11.58,11.58,0,0,0,9.84-17.72Z"/><path class="cls-11" d="M137,12.94C129.61,5.09,117.71,0,104.27,0S79.14,5,71.72,12.73c7.62,5.88,19.46,9.66,32.78,9.66S129.39,18.7,137,12.94Z"/><path class="cls-12" d="M145.72,40.8a8.23,8.23,0,0,0,1.14-4.18,7.92,7.92,0,0,0-.23-1.84,11.59,11.59,0,0,1-10.75,7.27,12,12,0,0,1-2.95-.39,11.59,11.59,0,0,1-10.24,6.15h-.12a19.35,19.35,0,0,1-34.63,0c-.35,0-.71,0-1.07,0a11.54,11.54,0,0,1-5.8-1.56,11.57,11.57,0,0,1-15.15-3.19c-.27.37-.56.73-.87,1.09a11.08,11.08,0,0,0,.71,1.9A11.59,11.59,0,0,0,81.07,62.77a11.54,11.54,0,0,0,5.8,1.56c.36,0,.72,0,1.07,0a19.35,19.35,0,0,0,34.63,0h.12a11.59,11.59,0,0,0,10.24-6.15,12,12,0,0,0,2.95.39,11.58,11.58,0,0,0,9.84-17.72Z"/><path class="cls-13" d="M100.29,73.26a6.32,6.32,0,0,0-.6-7.25c-.25-13.24-14-23.92-31.06-23.92S37.91,52.69,37.57,65.87a6.3,6.3,0,0,0,.9,9.22,8.78,8.78,0,0,0,.74,2.22,8.75,8.75,0,0,0-1.6,5.06A8.86,8.86,0,0,0,50.9,90a8.9,8.9,0,0,0,4.44,1.19,7.32,7.32,0,0,0,.81,0,14.77,14.77,0,0,0,26.45,0h.1a8.86,8.86,0,0,0,7.82-4.7,9.25,9.25,0,0,0,2.25.29,8.85,8.85,0,0,0,7.52-13.53Z"/><path class="cls-9" d="M93.64,52c-5.66-6-14.75-9.88-25-9.88s-19.2,3.82-24.86,9.73c5.81,4.49,14.86,7.38,25,7.38S87.82,56.37,93.64,52Z"/><path class="cls-12" d="M100.29,73.26a6.31,6.31,0,0,0,.87-3.2,6.46,6.46,0,0,0-.17-1.4,8.82,8.82,0,0,1-10.47,5.25,8.85,8.85,0,0,1-7.82,4.71h-.1a14.78,14.78,0,0,1-26.45,0,7.32,7.32,0,0,1-.81,0,8.9,8.9,0,0,1-4.44-1.19A8.84,8.84,0,0,1,39.33,75c-.21.29-.43.56-.66.83a8,8,0,0,0,.54,1.46,8.75,8.75,0,0,0-1.6,5.06A8.86,8.86,0,0,0,50.9,90a8.9,8.9,0,0,0,4.44,1.19,7.32,7.32,0,0,0,.81,0,14.77,14.77,0,0,0,26.45,0h.1a8.86,8.86,0,0,0,7.82-4.7,9.25,9.25,0,0,0,2.25.29,8.85,8.85,0,0,0,7.52-13.53Z"/><path class="cls-14" d="M168.78,69.72a7.25,7.25,0,0,0-.69-8.33C167.8,46.21,152,34,132.46,34S97.22,46.12,96.83,61.24a7.24,7.24,0,0,0,1,10.58,10.52,10.52,0,0,0,.84,2.54A10.16,10.16,0,0,0,112.12,89a10.09,10.09,0,0,0,5.09,1.37c.31,0,.62,0,.93,0a17,17,0,0,0,30.35,0h.11a10.15,10.15,0,0,0,9-5.39,10.49,10.49,0,0,0,2.58.34,10.16,10.16,0,0,0,10.16-10.17A10,10,0,0,0,168.78,69.72Z"/><path class="cls-11" d="M161.15,45.3C154.66,38.42,144.23,34,132.46,34s-22,4.39-28.53,11.16c6.67,5.15,17,8.46,28.72,8.46S154.47,50.34,161.15,45.3Z"/><path class="cls-12" d="M168.78,69.72a7.06,7.06,0,0,0,.8-5.29,10.17,10.17,0,0,1-9.43,6.38,10,10,0,0,1-2.58-.35,10.16,10.16,0,0,1-9,5.4h-.11a17,17,0,0,1-30.35,0c-.31,0-.62.05-.93.05a10.09,10.09,0,0,1-5.09-1.37,10.13,10.13,0,0,1-13.27-2.79c-.24.32-.5.64-.76,1a10.38,10.38,0,0,0,.61,1.67A10.16,10.16,0,0,0,112.12,89a10.09,10.09,0,0,0,5.09,1.37c.31,0,.62,0,.93,0a17,17,0,0,0,30.35,0h.11a10.15,10.15,0,0,0,9-5.39,10.49,10.49,0,0,0,2.58.34,10.16,10.16,0,0,0,10.16-10.17A10,10,0,0,0,168.78,69.72Z"/></g></g></svg>