<svg xmlns="http://www.w3.org/2000/svg" viewBox="0 0 206.29 253.1"><defs><style>.cls-1{isolation:isolate;}.cls-2{fill:#a97c50;}.cls-3{fill:#8b5e3c;}.cls-4{fill:#603e29;}.cls-5{fill:#93cb2f;}.cls-6{fill:#81b329;}.cls-7{fill:#709c24;}.cls-8{fill:#8abf2c;}.cls-9{fill:#7fba19;}.cls-10{fill:#754c29;}.cls-11{fill:#93cc2e;}.cls-12{fill:#86ba2a;}</style></defs><title>Asset 7</title><g id="Layer_2" data-name="Layer 2"><g id="Objects"><g class="cls-1"><polygon class="cls-2" points="206.29 179.87 103.58 239.67 0 179.87 102.91 120.07 206.29 179.87"/><polygon class="cls-3" points="206.29 179.87 206.29 193.3 103.58 253.1 103.58 239.67 206.29 179.87"/><polygon class="cls-4" points="103.58 239.67 103.58 253.1 0 193.3 0 179.87 103.58 239.67"/></g><g class="cls-1"><polygon class="cls-5" points="206.29 170.52 103.58 230.32 0 170.52 102.91 110.72 206.29 170.52"/><polygon class="cls-6" points="206.29 170.52 206.29 183.95 103.58 243.76 103.58 230.32 206.29 170.52"/><polygon class="cls-7" points="103.58 230.32 103.58 243.76 0 183.96 0 170.52 103.58 230.32"/></g><path class="cls-8" d="M100.19,201.13c1.85,1.07,1.86,2.8,0,3.87a7.35,7.35,0,0,1-6.68,0c-1.85-1.07-1.86-2.8,0-3.87A7.35,7.35,0,0,1,100.19,201.13Z"/><path class="cls-8" d="M179.41,165.11c1.85,1.07,1.86,2.8,0,3.87a7.35,7.35,0,0,1-6.68,0c-1.85-1.06-1.86-2.8,0-3.87A7.41,7.41,0,0,1,179.41,165.11Z"/><path class="cls-8" d="M154.74,170.81c1.86,1.06,1.86,2.8,0,3.86a7.38,7.38,0,0,1-6.68,0c-1.85-1.07-1.87-2.81,0-3.87A7.35,7.35,0,0,1,154.74,170.81Z"/><path class="cls-8" d="M37.08,168c1.85,1.07,1.86,2.8,0,3.87a7.35,7.35,0,0,1-6.68,0c-1.85-1.07-1.86-2.8,0-3.87A7.37,7.37,0,0,1,37.08,168Z"/><path class="cls-8" d="M56.05,175.55c1.85,1.07,1.86,2.8,0,3.87a7.35,7.35,0,0,1-6.68,0c-1.85-1.07-1.86-2.8,0-3.87A7.35,7.35,0,0,1,56.05,175.55Z"/><path class="cls-8" d="M83.6,132.86c1.85,1.07,1.86,2.8,0,3.87a7.35,7.35,0,0,1-6.68,0c-1.85-1.07-1.86-2.8,0-3.87A7.35,7.35,0,0,1,83.6,132.86Z"/><path class="cls-8" d="M132.93,137.6c1.85,1.07,1.86,2.8,0,3.87a7.35,7.35,0,0,1-6.68,0c-1.85-1.07-1.86-2.8,0-3.87A7.41,7.41,0,0,1,132.93,137.6Z"/><path class="cls-8" d="M123.38,205.83c1.85,1.07,1.86,2.8,0,3.87a7.35,7.35,0,0,1-6.68,0c-1.85-1.07-1.86-2.8,0-3.87A7.35,7.35,0,0,1,123.38,205.83Z"/><ellipse class="cls-9" cx="103.39" cy="173.12" rx="21.16" ry="36.52" transform="translate(-70.02 276.01) rotate(-89.84)"/><ellipse class="cls-9" cx="84" cy="162.63" rx="13.19" ry="22.77" transform="translate(-78.87 246.17) rotate(-89.84)"/><ellipse class="cls-9" cx="128.54" cy="164.95" rx="9.33" ry="16.11" transform="translate(-36.78 293.02) rotate(-89.84)"/><path class="cls-9" d="M87.36,172.18c6.31,3.64,6.34,9.55.07,13.2S71,189,64.64,185.38s-6.34-9.56-.07-13.2S81.05,168.53,87.36,172.18Z"/><ellipse class="cls-9" cx="88.75" cy="186.38" rx="9.33" ry="16.11" transform="translate(-97.89 274.6) rotate(-89.84)"/><path class="cls-10" d="M101,95.17c-.66-.49-6.6-5.27-7.79-5.72a17.15,17.15,0,0,1-3.35-1.85A16.7,16.7,0,0,1,87,84.93a22.48,22.48,0,0,1-4-7.07,31.21,31.21,0,0,1-1.77-8.18v0a.5.5,0,0,0-.53-.46.51.51,0,0,0-.47.48A33.28,33.28,0,0,0,81,78.44a25.18,25.18,0,0,0,3.42,8.26,56.41,56.41,0,0,0-11.07-2.28l-2-.24c-.63-.11-1.27-.22-1.89-.37a18.25,18.25,0,0,1-3.58-1.3,16.77,16.77,0,0,1-3.18-2.12,17.7,17.7,0,0,1-2.62-2.9,22.75,22.75,0,0,1-3.36-7.38,31.39,31.39,0,0,1-1.06-8.3v0a.5.5,0,0,0-1-.08,32.9,32.9,0,0,0,.07,8.81,25.07,25.07,0,0,0,2.75,8.6,20,20,0,0,0,2.7,3.83,21.08,21.08,0,0,0,3.61,3.11,23.81,23.81,0,0,0,4.27,2.17c.74.28,1.5.51,2.26.73l2.23.54a48.68,48.68,0,0,1,14.94,6.09A46.73,46.73,0,0,1,94,100.3c1,.87,2,1.78,2.86,2.71.44.47.9.94,1.3,1.42.22.24.41.48.6.71s.2.24.28.35.18.24.2.28A4.77,4.77,0,0,0,101.3,108V95.85A5.39,5.39,0,0,1,101,95.17Z"/><path class="cls-3" d="M100.32,102.65a4,4,0,0,0-.27-.34q-.28-.36-.6-.72c-.41-.48-.86-1-1.3-1.42-.91-.93-1.86-1.84-2.86-2.71a46.22,46.22,0,0,0-6.43-4.72,48.46,48.46,0,0,0-14.93-6.08l-2.23-.54c-.76-.23-1.52-.46-2.27-.74a22.19,22.19,0,0,1-4.26-2.17,20.36,20.36,0,0,1-3.62-3.11,20.9,20.9,0,0,1-2.7-3.83,25.22,25.22,0,0,1-2.75-8.6c-.13-1-.21-1.9-.26-2.85a27.68,27.68,0,0,1-.14-3v0a.5.5,0,0,0-1-.08,32.9,32.9,0,0,0,.07,8.81,25.07,25.07,0,0,0,2.75,8.6,20,20,0,0,0,2.7,3.83,21.08,21.08,0,0,0,3.61,3.11,23.81,23.81,0,0,0,4.27,2.17c.74.28,1.5.51,2.26.73l2.23.54a48.68,48.68,0,0,1,14.94,6.09A46.73,46.73,0,0,1,94,100.3c1,.87,2,1.78,2.86,2.71.44.47.9.94,1.3,1.42.22.24.41.48.6.71s.2.24.28.35.18.24.2.28A4.77,4.77,0,0,0,101.3,108v-3.88a5.17,5.17,0,0,1-.78-1.15A2.32,2.32,0,0,0,100.32,102.65Z"/><path class="cls-10" d="M150.22,88.41a.5.5,0,0,0-.5-.44.51.51,0,0,0-.49.51v0a31.3,31.3,0,0,1-1.07,8.3,22.66,22.66,0,0,1-3.36,7.38,16.48,16.48,0,0,1-2.62,2.9,16.82,16.82,0,0,1-3.18,2.13,18.64,18.64,0,0,1-3.58,1.29c-.62.16-1.26.26-1.89.37l-1.68.2c.14-.21.3-.4.43-.61a21.56,21.56,0,0,0,2-4.35,20.32,20.32,0,0,0,.84-4.61,25.24,25.24,0,0,0-1.11-9,32.83,32.83,0,0,0-3.64-8,.52.52,0,0,0-.64-.19.51.51,0,0,0-.24.67l0,0A31.67,31.67,0,0,1,132,93a22.57,22.57,0,0,1,0,8.11,15.71,15.71,0,0,1-3.15,7,18.14,18.14,0,0,1-2.71,2.69c-.49.4-1,.76-1.55,1.13l-.9.54a56.18,56.18,0,0,0-17.77,8c-.68.45-1.35.93-2,1.43a5.28,5.28,0,0,1-.34.67v12.11a4.65,4.65,0,0,0,2.12-2.19,1.54,1.54,0,0,1,.2-.28l.27-.34q.29-.36.6-.72c.41-.48.86-.94,1.3-1.42.91-.93,1.86-1.84,2.86-2.71a46.22,46.22,0,0,1,6.43-4.72,48.71,48.71,0,0,1,14.93-6.08l2.23-.54c.76-.23,1.52-.46,2.27-.74a22.19,22.19,0,0,0,4.26-2.17,20.36,20.36,0,0,0,3.62-3.11,20.9,20.9,0,0,0,2.7-3.83,25.24,25.24,0,0,0,2.75-8.59A32.5,32.5,0,0,0,150.22,88.41Z"/><path class="cls-3" d="M104.24,131.06l.27-.35.6-.71c.41-.48.86-.95,1.3-1.42.91-.93,1.86-1.84,2.86-2.71a46.22,46.22,0,0,1,6.43-4.72,48.46,48.46,0,0,1,14.93-6.08l2.23-.55c.76-.22,1.52-.45,2.27-.73a22.78,22.78,0,0,0,4.26-2.17,19.2,19.2,0,0,0,6.32-6.94,25.29,25.29,0,0,0,2.75-8.6c0-.34.07-.68.11-1-.12.59-.25,1.18-.41,1.75a22.66,22.66,0,0,1-3.36,7.38,16.48,16.48,0,0,1-2.62,2.9,16.82,16.82,0,0,1-3.18,2.13,18.64,18.64,0,0,1-3.58,1.29c-.62.16-1.26.26-1.89.37l-1.68.2-1.9-.17a37.51,37.51,0,0,0,2.61-5.92,20.42,20.42,0,0,0,.84-4.61,25,25,0,0,0-1.11-8.95,33.41,33.41,0,0,0-2.85-6.67.48.48,0,0,0,0,.26l0,0A31.67,31.67,0,0,1,132,93a22.57,22.57,0,0,1,0,8.11,15.71,15.71,0,0,1-3.15,7,18.14,18.14,0,0,1-2.71,2.69c-.49.4-1,.76-1.55,1.13l-.9.54a56.18,56.18,0,0,0-17.77,8c-.68.45-1.35.93-2,1.43a5.28,5.28,0,0,1-.34.67v9.5a4.57,4.57,0,0,0,.42-.71A2.32,2.32,0,0,1,104.24,131.06Z"/><g class="cls-1"><path class="cls-3" d="M104.54,28.07l2.21,146.85a2.17,2.17,0,0,1-1.35,2,8.54,8.54,0,0,1-7.54,0,2.21,2.21,0,0,1-1.38-2L98.87,28.06Z"/></g><path class="cls-10" d="M106.75,174.92,104.54,28.07h-2.87V177.79a7.84,7.84,0,0,0,3.73-.88A2.17,2.17,0,0,0,106.75,174.92Z"/><path class="cls-11" d="M102.23,58.51c0-3-3.53-5.52-7.89-5.52a9.24,9.24,0,0,0-6.41,2.32c-3.42-4.06-15.65-7.06-30.22-7.06-9.25,0-17.55,1.21-23.26,3.13a10.13,10.13,0,0,0-5-1.27c-4.36,0-7.89,2.47-7.89,5.51A4.22,4.22,0,0,0,22.28,58c-3.24,1.32-5.39,3.59-5.39,6.17s1.93,4.6,4.9,6A4.41,4.41,0,0,0,20.4,73.2c0,3,3.53,5.51,7.88,5.51a9.86,9.86,0,0,0,5.51-1.57,15.06,15.06,0,0,0,6.59,2.18,4.06,4.06,0,0,0,.06,1.7c.78,3,4.82,4.44,9,3.34,3.54-.93,6.07-3.41,6.32-5.92a18.6,18.6,0,0,0,4.67-.66,10.19,10.19,0,0,0,17.75-3.7,10.19,10.19,0,0,0,17.34-9.57,5.45,5.45,0,0,0,.14-.58C99.4,63.49,102.23,61.23,102.23,58.51Z"/><path class="cls-12" d="M91.49,63.65a10.17,10.17,0,0,1-7.5-3.3,10.19,10.19,0,0,1-17.75,3.7,18.15,18.15,0,0,1-4.67.66c-.25,2.52-2.78,5-6.32,5.92-4.21,1.1-8.25-.39-9-3.33a4.11,4.11,0,0,1-.06-1.71,15.06,15.06,0,0,1-6.59-2.17A9.86,9.86,0,0,1,34.06,65c-4.35,0-7.88-2.47-7.88-5.52a4.43,4.43,0,0,1,1.39-3.12,8.51,8.51,0,0,1-4.47-4,4.54,4.54,0,0,0-1.57,3.29A4.22,4.22,0,0,0,22.28,58c-3.24,1.32-5.39,3.59-5.39,6.17s1.93,4.6,4.9,6A4.41,4.41,0,0,0,20.4,73.2c0,3,3.53,5.51,7.88,5.51a9.86,9.86,0,0,0,5.51-1.57,15.06,15.06,0,0,0,6.59,2.18,4.06,4.06,0,0,0,.06,1.7c.78,3,4.82,4.44,9,3.34,3.54-.93,6.07-3.41,6.32-5.92a18.6,18.6,0,0,0,4.67-.66,10.19,10.19,0,0,0,17.75-3.7,10.19,10.19,0,0,0,17.34-9.57,5.45,5.45,0,0,0,.14-.58c3.71-.44,6.54-2.7,6.54-5.42a4.27,4.27,0,0,0-.87-2.52A10.21,10.21,0,0,1,91.49,63.65Z"/><path class="cls-11" d="M185.23,81.9a7.37,7.37,0,0,0-12-5.71c-2.51-2.59-9.07-4.54-17.09-5A78.65,78.65,0,0,0,145,70.46c-18.26,0-33.07,6-33.07,13.4a5.88,5.88,0,0,0,.47,2.24,7.35,7.35,0,0,0,6.9,9.94l.43,0a10.3,10.3,0,0,0,16.78,4.74,7.36,7.36,0,0,0,13.27-2.27,9.77,9.77,0,0,0,13.53-2.37A8.72,8.72,0,0,0,179,90.94a9.19,9.19,0,0,0-.17-1.75A7.36,7.36,0,0,0,185.23,81.9Z"/><path class="cls-12" d="M182.56,76.22a7.29,7.29,0,0,1-3.71,1.64A9.09,9.09,0,0,1,179,79.6a8.72,8.72,0,0,1-15.74,5.19,9.77,9.77,0,0,1-13.53,2.37,7.36,7.36,0,0,1-13.27,2.27,10.3,10.3,0,0,1-16.78-4.75c-.14,0-.28,0-.43,0a7.38,7.38,0,0,1-6.5-3.9,6.11,6.11,0,0,0-.87,3,5.88,5.88,0,0,0,.47,2.24,7.35,7.35,0,0,0,6.9,9.94l.43,0a10.3,10.3,0,0,0,16.78,4.74,7.36,7.36,0,0,0,13.27-2.27,9.77,9.77,0,0,0,13.53-2.37A8.72,8.72,0,0,0,179,90.94a9.19,9.19,0,0,0-.17-1.75,7.36,7.36,0,0,0,3.71-13Z"/><path class="cls-12" d="M158.33,40a8.18,8.18,0,0,0-3.17-6.46,8.19,8.19,0,0,0-12.47-10.29,15.18,15.18,0,0,0-15-13,14.9,14.9,0,0,0-3.92.53A18.92,18.92,0,0,0,93.44,11.9,15.17,15.17,0,0,0,73,18.55a15.28,15.28,0,0,0-5.71-1.11H67a8.18,8.18,0,0,0-13.42,8.6c-.09.17-.17.34-.25.51a8.19,8.19,0,0,0,2.15,16.1h.2A15.26,15.26,0,0,0,67.3,48c.23,0,.44,0,.67,0a8.19,8.19,0,0,0,14.32,3.8,16.34,16.34,0,0,0,10.83-.6,16.66,16.66,0,0,0,23.82,5.65,8.2,8.2,0,0,0,11-3.38,16.52,16.52,0,0,0,9.84.08,8.18,8.18,0,0,0,12.68-5.34A8.19,8.19,0,0,0,158.33,40Z"/><path class="cls-11" d="M149.25,16.18a7.85,7.85,0,0,0,.2-1.76,8.2,8.2,0,0,0-12.8-6.78A11,11,0,0,0,133,7a11.13,11.13,0,0,0-6.42,2.05,11.54,11.54,0,0,0-18.83-6.23A11.52,11.52,0,0,0,94,2.86,8.19,8.19,0,0,0,82.32,5.42a8.19,8.19,0,0,0-13,.48,8.19,8.19,0,1,0,1.06,14.8,8.18,8.18,0,0,0,5.27,2.87,11.18,11.18,0,0,0,9.43,5.18,11,11,0,0,0,5.71-1.62,13.25,13.25,0,0,0,25.37.3,7.59,7.59,0,0,0,4.08,1.2,7.68,7.68,0,0,0,5.28-2.12,11.06,11.06,0,0,0,12.86,1.43,8.19,8.19,0,1,0,10.83-11.76Z"/></g></g></svg>