<svg xmlns="http://www.w3.org/2000/svg" viewBox="0 0 206.29 242.67"><defs><style>.cls-1{isolation:isolate;}.cls-2{fill:#a97c50;}.cls-3{fill:#8b5e3c;}.cls-4{fill:#603e29;}.cls-5{fill:#a37d57;}.cls-6{fill:#946c4a;}.cls-7{fill:#856042;}.cls-8{fill:none;}</style></defs><title>Asset 8</title><g id="Layer_2" data-name="Layer 2"><g id="Objects"><g class="cls-1"><polygon class="cls-2" points="206.29 169.44 103.58 229.24 0 169.44 102.91 109.63 206.29 169.44"/><polygon class="cls-3" points="206.29 169.44 206.29 182.87 103.58 242.67 103.58 229.24 206.29 169.44"/><polygon class="cls-4" points="103.58 229.24 103.58 242.67 0 182.87 0 169.44 103.58 229.24"/></g><g class="cls-1"><polygon class="cls-5" points="206.29 160.09 103.58 219.89 0 160.09 102.91 100.29 206.29 160.09"/><polygon class="cls-6" points="206.29 160.09 206.29 173.52 103.58 233.32 103.58 219.89 206.29 160.09"/><polygon class="cls-7" points="103.58 219.89 103.58 233.32 0 173.52 0 160.09 103.58 219.89"/></g><g class="cls-1"><path class="cls-8" d="M110,102.49l4.18,62.68a6.17,6.17,0,0,1-2.56,5.22,12.11,12.11,0,0,1-14.21,0,6.21,6.21,0,0,1-2.6-5.29l4.51-62.63Z"/></g><path class="cls-8" d="M114.22,165.17,110,102.49h-5.42v70.21a11.45,11.45,0,0,0,7-2.3A6.17,6.17,0,0,0,114.22,165.17Z"/><path class="cls-8" d="M158.54,123.64a282.71,282.71,0,0,1-52.59-53l-1.42-1.87-1.42,1.87a282.35,282.35,0,0,1-52.58,53l-4,3.1,16.32.5a56.62,56.62,0,0,0,8.45-.39A32.64,32.64,0,0,1,104.44,144l.09.18.09-.18a32.66,32.66,0,0,1,33.17-17.12,56.55,56.55,0,0,0,8.44.39l16.33-.5Z"/><path class="cls-8" d="M104.53,128.23h0a32.66,32.66,0,0,1,33.08-17.33,55.74,55.74,0,0,0,6,.43A283,283,0,0,1,106,70.62l-1.42-1.87-1.42,1.87A282.44,282.44,0,0,1,65.4,111.33a55.38,55.38,0,0,0,6-.43,32.66,32.66,0,0,1,33.08,17.33Z"/><path class="cls-8" d="M107.32,107.29c0,4.85-1.25,8.78-2.79,8.78s-2.78-3.93-2.78-8.78,1.24-8.78,2.78-8.78S107.32,102.44,107.32,107.29Z"/><path class="cls-8" d="M123.75,94.55c3.43,3.43,5.33,7.09,4.24,8.18s-4.75-.81-8.17-4.24-5.33-7.09-4.24-8.18S120.32,91.12,123.75,94.55Z"/><ellipse class="cls-8" cx="87.28" cy="96.52" rx="8.78" ry="2.78" transform="translate(-42.69 89.99) rotate(-45)"/><path class="cls-8" d="M151.1,93a243.55,243.55,0,0,1-45.34-45.72l-1.23-1.61-1.22,1.61A243.86,243.86,0,0,1,58,93L54.5,95.69l14.08.42a46.57,46.57,0,0,0,7.47-.36,28.12,28.12,0,0,1,28.48,15h0a28.12,28.12,0,0,1,28.48-15,46.64,46.64,0,0,0,7.48.36l14.08-.42Z"/><path class="cls-8" d="M104.53,97h0A28.16,28.16,0,0,1,133.06,82a50.28,50.28,0,0,0,5.22.37,243.64,243.64,0,0,1-32.52-35.11l-1.23-1.61-1.22,1.61A244.2,244.2,0,0,1,70.79,82.4,50.48,50.48,0,0,0,76,82,28.14,28.14,0,0,1,104.53,97Z"/><ellipse class="cls-8" cx="104.53" cy="78.91" rx="2.4" ry="7.57"/><path class="cls-8" d="M121.11,67.93c3,2.95,4.59,6.11,3.65,7s-4.09-.7-7.05-3.66-4.59-6.11-3.65-7S118.15,65,121.11,67.93Z"/><ellipse class="cls-8" cx="89.66" cy="69.62" rx="7.57" ry="2.4" transform="translate(-22.97 83.79) rotate(-45)"/><path class="cls-8" d="M151.1,65.47a243.5,243.5,0,0,1-45.34-45.71l-1.23-1.62-1.22,1.62A244.1,244.1,0,0,1,58,65.47L54.5,68.15l14.08.43a49,49,0,0,0,7.47-.36,28.11,28.11,0,0,1,28.48,14.94h0A28.12,28.12,0,0,1,133,68.22a49.07,49.07,0,0,0,7.48.36l14.08-.43Z"/><path class="cls-8" d="M104.53,69.43h0a28.18,28.18,0,0,1,28.53-14.94,47.67,47.67,0,0,0,5.22.37,243.56,243.56,0,0,1-32.52-35.1l-1.23-1.62-1.22,1.62a244.13,244.13,0,0,1-32.52,35.1A47.84,47.84,0,0,0,76,54.49a28.16,28.16,0,0,1,28.52,14.94Z"/><ellipse class="cls-8" cx="104.53" cy="51.37" rx="2.4" ry="7.57"/><path class="cls-8" d="M121.11,40.39c3,3,4.59,6.11,3.65,7s-4.09-.7-7.05-3.65-4.59-6.12-3.65-7S118.15,37.43,121.11,40.39Z"/><path class="cls-8" d="M88,40.39c-3,3-4.59,6.11-3.66,7s4.1-.7,7-3.65,4.6-6.12,3.66-7S90.91,37.43,88,40.39Z"/><path class="cls-8" d="M144.37,40.49A208.21,208.21,0,0,1,105.58,1.38l-1-1.38-1,1.38A208.81,208.81,0,0,1,64.7,40.49l-3,2.29,12,.37a41.4,41.4,0,0,0,6.4-.31,24.05,24.05,0,0,1,24.36,12.78h0A24.06,24.06,0,0,1,128.9,42.84a41.27,41.27,0,0,0,6.39.31l12.05-.37Z"/><path class="cls-8" d="M104.53,43.88h0A24.1,24.1,0,0,1,128.94,31.1a41.23,41.23,0,0,0,4.46.31,207.77,207.77,0,0,1-27.82-30l-1-1.38-1,1.38a208.4,208.4,0,0,1-27.83,30,41.6,41.6,0,0,0,4.47-.31,24.08,24.08,0,0,1,24.4,12.78Z"/><ellipse class="cls-8" cx="104.53" cy="28.43" rx="2.05" ry="6.47"/><path class="cls-8" d="M118.71,19c2.53,2.53,3.93,5.23,3.13,6s-3.5-.59-6-3.12-3.93-5.23-3.13-6S116.18,16.5,118.71,19Z"/><path class="cls-8" d="M90.35,19c-2.52,2.53-3.92,5.23-3.12,6s3.5-.59,6-3.12,3.93-5.23,3.12-6S92.88,16.5,90.35,19Z"/></g></g></svg>