<svg xmlns="http://www.w3.org/2000/svg" viewBox="0 0 206.29 142.39"><defs><style>.cls-1{isolation:isolate;}.cls-2{fill:#a97c50;}.cls-3{fill:#8b5e3c;}.cls-4{fill:#603e29;}.cls-5{fill:#a37d57;}.cls-6{fill:#946c4a;}.cls-7{fill:#856042;}</style></defs><title>Asset 8</title><g id="Layer_2" data-name="Layer 2"><g id="Objects"><g class="cls-1"><polygon class="cls-2" points="206.29 69.15 103.58 128.95 0 69.15 102.91 9.35 206.29 69.15"/><polygon class="cls-3" points="206.29 69.15 206.29 82.58 103.58 142.39 103.58 128.95 206.29 69.15"/><polygon class="cls-4" points="103.58 128.95 103.58 142.39 0 82.58 0 69.15 103.58 128.95"/></g><g class="cls-1"><polygon class="cls-5" points="206.29 59.8 103.58 119.61 0 59.8 102.91 0 206.29 59.8"/><polygon class="cls-6" points="206.29 59.8 206.29 73.23 103.58 133.04 103.58 119.61 206.29 59.8"/><polygon class="cls-7" points="103.58 119.61 103.58 133.04 0 73.24 0 59.8 103.58 119.61"/></g></g></g></svg>