<svg xmlns="http://www.w3.org/2000/svg" viewBox="0 0 206.29 252.58"><defs><style>.cls-1{isolation:isolate;}.cls-2{fill:#a97c50;}.cls-3{fill:#8b5e3c;}.cls-4{fill:#603e29;}.cls-5{fill:#93cb2f;}.cls-6{fill:#81b329;}.cls-7{fill:#709c24;}.cls-8{fill:#7fba19;}.cls-9{fill:#8abf2c;}.cls-10{fill:#754c29;}.cls-11{fill:#7dad28;}.cls-12{fill:#86ba2a;}.cls-13{fill:#8dc63f;}</style></defs><title>Asset 3</title><g id="Layer_2" data-name="Layer 2"><g id="Objects"><g class="cls-1"><polygon class="cls-2" points="206.29 179.34 103.58 239.15 0 179.34 102.91 119.54 206.29 179.34"/><polygon class="cls-3" points="206.29 179.34 206.29 192.78 103.58 252.58 103.58 239.15 206.29 179.34"/><polygon class="cls-4" points="103.58 239.15 103.58 252.58 0 192.78 0 179.34 103.58 239.15"/></g><g class="cls-1"><polygon class="cls-5" points="206.29 170 103.58 229.8 0 170 102.91 110.19 206.29 170"/><polygon class="cls-6" points="206.29 170 206.29 183.43 103.58 243.23 103.58 229.8 206.29 170"/><polygon class="cls-7" points="103.58 229.8 103.58 243.23 0 183.43 0 170 103.58 229.8"/></g><ellipse class="cls-8" cx="103.14" cy="170.75" rx="21.16" ry="46.51" transform="translate(-67.8 273.58) rotate(-89.89)"/><path class="cls-9" d="M100.19,200.6c1.85,1.07,1.86,2.8,0,3.87a7.35,7.35,0,0,1-6.68,0c-1.85-1.07-1.86-2.8,0-3.87A7.35,7.35,0,0,1,100.19,200.6Z"/><ellipse class="cls-9" cx="176.08" cy="166.52" rx="2.74" ry="4.72" transform="translate(9.05 342.13) rotate(-89.84)"/><path class="cls-9" d="M154.74,170.28c1.86,1.07,1.86,2.8,0,3.87a7.35,7.35,0,0,1-6.68,0c-1.85-1.07-1.87-2.8,0-3.87A7.35,7.35,0,0,1,154.74,170.28Z"/><path class="cls-9" d="M37.08,167.44c1.85,1.06,1.86,2.8,0,3.86a7.35,7.35,0,0,1-6.68,0c-1.85-1.06-1.86-2.8,0-3.86A7.37,7.37,0,0,1,37.08,167.44Z"/><path class="cls-9" d="M56.05,175c1.85,1.07,1.86,2.81,0,3.87a7.35,7.35,0,0,1-6.68,0c-1.85-1.06-1.86-2.8,0-3.87A7.41,7.41,0,0,1,56.05,175Z"/><path class="cls-9" d="M83.6,132.34c1.85,1.06,1.86,2.8,0,3.87a7.41,7.41,0,0,1-6.68,0c-1.85-1.07-1.86-2.81,0-3.87A7.35,7.35,0,0,1,83.6,132.34Z"/><path class="cls-9" d="M132.93,137.08c1.85,1.07,1.86,2.8,0,3.87a7.35,7.35,0,0,1-6.68,0c-1.85-1.07-1.86-2.8,0-3.87A7.35,7.35,0,0,1,132.93,137.08Z"/><path class="cls-9" d="M123.38,205.31c1.85,1.06,1.86,2.8,0,3.86a7.35,7.35,0,0,1-6.68,0c-1.85-1.06-1.86-2.8,0-3.86A7.35,7.35,0,0,1,123.38,205.31Z"/><g class="cls-1"><path class="cls-3" d="M108.65,102.49l4.18,62.68a6.17,6.17,0,0,1-2.56,5.22,12.11,12.11,0,0,1-14.21,0,6.21,6.21,0,0,1-2.6-5.29L98,102.47Z"/></g><path class="cls-10" d="M112.83,165.17l-4.18-62.68h-5.42v70.21a11.45,11.45,0,0,0,7-2.3A6.17,6.17,0,0,0,112.83,165.17Z"/><path class="cls-11" d="M157.15,123.64a282.71,282.71,0,0,1-52.59-53l-1.42-1.87-1.41,1.87a283,283,0,0,1-52.58,53l-4,3.1,16.33.5a56.55,56.55,0,0,0,8.44-.39A32.64,32.64,0,0,1,103.05,144l.09.18.1-.18a32.63,32.63,0,0,1,33.16-17.12,56.55,56.55,0,0,0,8.44.39l16.33-.5Z"/><path class="cls-12" d="M103.14,128.23h0a32.66,32.66,0,0,1,33.08-17.33,55.38,55.38,0,0,0,6.05.43,282.51,282.51,0,0,1-37.72-40.71l-1.42-1.87-1.42,1.87A281.88,281.88,0,0,1,64,111.33a55.38,55.38,0,0,0,6-.43,32.66,32.66,0,0,1,33.08,17.33Z"/><path class="cls-13" d="M105.93,107.29c0,4.85-1.25,8.78-2.79,8.78s-2.78-3.93-2.78-8.78,1.25-8.78,2.78-8.78S105.93,102.44,105.93,107.29Z"/><path class="cls-13" d="M122.36,94.55c3.43,3.43,5.33,7.09,4.24,8.18s-4.74-.81-8.17-4.24-5.33-7.09-4.24-8.18S118.94,91.12,122.36,94.55Z"/><ellipse class="cls-13" cx="85.89" cy="96.52" rx="8.78" ry="2.78" transform="translate(-43.09 89.01) rotate(-45)"/><path class="cls-11" d="M149.71,93a243.55,243.55,0,0,1-45.34-45.72l-1.23-1.61-1.22,1.61A243.55,243.55,0,0,1,56.58,93l-3.47,2.68,14.08.42a46.57,46.57,0,0,0,7.47-.36,28.11,28.11,0,0,1,28.48,15h0a28.13,28.13,0,0,1,28.49-15,46.46,46.46,0,0,0,7.47.36l14.08-.42Z"/><path class="cls-12" d="M103.14,97h0A28.14,28.14,0,0,1,131.67,82a50.48,50.48,0,0,0,5.22.37,243.64,243.64,0,0,1-32.52-35.11l-1.23-1.61-1.22,1.61A243.64,243.64,0,0,1,69.4,82.4,50.48,50.48,0,0,0,74.62,82,28.14,28.14,0,0,1,103.14,97Z"/><ellipse class="cls-13" cx="103.14" cy="78.91" rx="2.4" ry="7.57"/><path class="cls-13" d="M119.72,67.93c3,2.95,4.59,6.11,3.65,7s-4.09-.7-7.05-3.66-4.59-6.11-3.65-7S116.76,65,119.72,67.93Z"/><ellipse class="cls-13" cx="88.27" cy="69.62" rx="7.57" ry="2.4" transform="translate(-23.38 82.81) rotate(-45)"/><path class="cls-11" d="M149.71,65.47a243.5,243.5,0,0,1-45.34-45.71l-1.23-1.62-1.22,1.62A243.8,243.8,0,0,1,56.58,65.47l-3.47,2.68,14.08.43a49,49,0,0,0,7.47-.36,28.1,28.1,0,0,1,28.48,14.94h0a28.12,28.12,0,0,1,28.49-14.94,48.88,48.88,0,0,0,7.47.36l14.08-.43Z"/><path class="cls-12" d="M103.14,69.43h0a28.16,28.16,0,0,1,28.52-14.94,47.84,47.84,0,0,0,5.22.37,243.56,243.56,0,0,1-32.52-35.1l-1.23-1.62-1.22,1.62A243.56,243.56,0,0,1,69.4,54.86a47.84,47.84,0,0,0,5.22-.37,28.16,28.16,0,0,1,28.52,14.94Z"/><ellipse class="cls-13" cx="103.14" cy="51.37" rx="2.4" ry="7.57"/><path class="cls-13" d="M119.72,40.39c3,3,4.59,6.11,3.65,7s-4.09-.7-7.05-3.65-4.59-6.12-3.65-7S116.76,37.43,119.72,40.39Z"/><path class="cls-13" d="M86.57,40.39c-2.95,3-4.59,6.11-3.65,7s4.09-.7,7-3.65,4.59-6.12,3.65-7S89.53,37.43,86.57,40.39Z"/><path class="cls-11" d="M143,40.49A208.51,208.51,0,0,1,104.19,1.38l-1-1.38-1,1.38A208.81,208.81,0,0,1,63.31,40.49l-3,2.29,12,.37a41.34,41.34,0,0,0,6.4-.31,24,24,0,0,1,24.36,12.78h0a24.07,24.07,0,0,1,24.37-12.78,41.34,41.34,0,0,0,6.4.31l12-.37Z"/><path class="cls-12" d="M103.14,43.88h0a24.08,24.08,0,0,1,24.4-12.78,41.59,41.59,0,0,0,4.46.31,207.77,207.77,0,0,1-27.82-30l-1-1.38-1,1.38a208.9,208.9,0,0,1-27.82,30,41.59,41.59,0,0,0,4.46-.31,24.08,24.08,0,0,1,24.4,12.78Z"/><ellipse class="cls-13" cx="103.14" cy="28.43" rx="2.05" ry="6.47"/><path class="cls-13" d="M117.32,19c2.53,2.53,3.93,5.23,3.13,6s-3.5-.59-6-3.12-3.93-5.23-3.13-6S114.79,16.5,117.32,19Z"/><path class="cls-13" d="M89,19c-2.53,2.53-3.93,5.23-3.13,6s3.5-.59,6-3.12,3.93-5.23,3.13-6S91.49,16.5,89,19Z"/></g></g></svg>