<svg xmlns="http://www.w3.org/2000/svg" viewBox="0 0 206.29 227.83"><defs><style>.cls-1{isolation:isolate;}.cls-2{fill:#a97c50;}.cls-3{fill:#8b5e3c;}.cls-4{fill:#603e29;}.cls-5{fill:#93cb2f;}.cls-6{fill:#81b329;}.cls-7{fill:#709c24;}.cls-8{fill:#8abf2c;}.cls-9{fill:#7fba19;}.cls-10{fill:#86ba2a;}.cls-11{fill:#74a124;}.cls-12{fill:#93cc2e;}.cls-13{fill:#754c29;}</style></defs><title>Asset 5</title><g id="Layer_2" data-name="Layer 2"><g id="Objects"><g class="cls-1"><polygon class="cls-2" points="206.29 154.59 103.58 214.4 0 154.59 102.91 94.79 206.29 154.59"/><polygon class="cls-3" points="206.29 154.59 206.29 168.03 103.58 227.83 103.58 214.4 206.29 154.59"/><polygon class="cls-4" points="103.58 214.4 103.58 227.83 0 168.03 0 154.59 103.58 214.4"/></g><g class="cls-1"><polygon class="cls-5" points="206.29 145.25 103.58 205.05 0 145.25 102.91 85.44 206.29 145.25"/><polygon class="cls-6" points="206.29 145.25 206.29 158.68 103.58 218.48 103.58 205.05 206.29 145.25"/><polygon class="cls-7" points="103.58 205.05 103.58 218.48 0 158.68 0 145.25 103.58 205.05"/></g><path class="cls-8" d="M100.19,175.85c1.85,1.07,1.86,2.8,0,3.87a7.35,7.35,0,0,1-6.68,0c-1.85-1.07-1.86-2.8,0-3.87A7.35,7.35,0,0,1,100.19,175.85Z"/><path class="cls-8" d="M179.41,139.84c1.85,1.07,1.86,2.8,0,3.87a7.35,7.35,0,0,1-6.68,0c-1.85-1.07-1.86-2.8,0-3.87A7.35,7.35,0,0,1,179.41,139.84Z"/><path class="cls-8" d="M154.74,145.53c1.86,1.07,1.86,2.8,0,3.87a7.35,7.35,0,0,1-6.68,0c-1.85-1.07-1.87-2.8,0-3.87A7.35,7.35,0,0,1,154.74,145.53Z"/><path class="cls-8" d="M37.08,142.69c1.85,1.06,1.86,2.8,0,3.86a7.35,7.35,0,0,1-6.68,0c-1.85-1.06-1.86-2.8,0-3.86A7.37,7.37,0,0,1,37.08,142.69Z"/><path class="cls-8" d="M56.05,150.27c1.85,1.07,1.86,2.81,0,3.87a7.35,7.35,0,0,1-6.68,0c-1.85-1.06-1.86-2.8,0-3.87A7.41,7.41,0,0,1,56.05,150.27Z"/><path class="cls-8" d="M83.6,107.59c1.85,1.06,1.86,2.8,0,3.87a7.41,7.41,0,0,1-6.68,0c-1.85-1.07-1.86-2.81,0-3.87A7.35,7.35,0,0,1,83.6,107.59Z"/><path class="cls-8" d="M132.93,112.33c1.85,1.07,1.86,2.8,0,3.87a7.35,7.35,0,0,1-6.68,0c-1.85-1.07-1.86-2.8,0-3.87A7.35,7.35,0,0,1,132.93,112.33Z"/><path class="cls-8" d="M123.38,180.56c1.85,1.06,1.86,2.8,0,3.86a7.35,7.35,0,0,1-6.68,0c-1.85-1.06-1.86-2.8,0-3.86A7.35,7.35,0,0,1,123.38,180.56Z"/><ellipse class="cls-9" cx="103.39" cy="147.84" rx="21.16" ry="36.52" transform="translate(-44.75 250.81) rotate(-89.84)"/><ellipse class="cls-9" cx="84" cy="137.35" rx="13.19" ry="22.77" transform="translate(-53.59 220.96) rotate(-89.84)"/><path class="cls-9" d="M139.9,133.08c6.31,3.64,6.34,9.55.07,13.2s-16.47,3.64-22.79,0-6.35-9.56-.07-13.2S133.58,129.43,139.9,133.08Z"/><ellipse class="cls-9" cx="136.83" cy="127.24" rx="9.33" ry="16.11" transform="translate(9.21 263.71) rotate(-89.84)"/><path class="cls-9" d="M87.36,146.9c6.31,3.65,6.34,9.56.07,13.2s-16.47,3.65-22.79,0-6.34-9.55-.07-13.2S81.05,143.26,87.36,146.9Z"/><ellipse class="cls-9" cx="88.75" cy="161.11" rx="9.33" ry="16.11" transform="translate(-72.61 249.4) rotate(-89.84)"/><circle class="cls-10" cx="112.98" cy="31.3" r="10.2" transform="translate(7.26 81.97) rotate(-41.09)"/><path class="cls-10" d="M118.43,27a9.69,9.69,0,0,0,.25-2.17,10.07,10.07,0,0,0-14.65-9A12.53,12.53,0,0,0,84,15.09a10,10,0,0,0-12.63,8.83A11,11,0,1,0,84.76,41.44a11,11,0,0,0,19.48.44A11,11,0,0,0,118.43,27Z"/><path class="cls-11" d="M119.26,36.11a5.65,5.65,0,0,0-3.15,1A10.36,10.36,0,0,0,99,40.53a10.29,10.29,0,0,0-3.85.83A10.33,10.33,0,0,0,80.92,40a7.2,7.2,0,1,0-3.78,10,10.36,10.36,0,0,0,14.27,7.63,10.35,10.35,0,0,0,17.51-3,10.37,10.37,0,0,0,9.67-7.28,4.9,4.9,0,0,0,.67.07,5.66,5.66,0,0,0,0-11.32Z"/><path class="cls-12" d="M114.14,14.51a4.65,4.65,0,0,0-.75.08,7.08,7.08,0,0,0-9.9-2.36,9.74,9.74,0,0,0,.23-2.11,10.12,10.12,0,0,0-20.2-1A7.09,7.09,0,1,0,80.86,22.8l.37,0a7.54,7.54,0,0,0-.14,1.43,7.1,7.1,0,0,0,14.17.6,7,7,0,0,0,7.29-1.33,7.08,7.08,0,0,0,9.12.32,5,5,0,1,0,2.47-9.29Z"/><circle class="cls-10" cx="98.89" cy="63.65" r="10.59"/><path class="cls-10" d="M104.56,59.17a10.46,10.46,0,0,0-15-11.57,13,13,0,0,0-20.84-.78A10.42,10.42,0,0,0,55.66,56,11.47,11.47,0,1,0,69.6,74.18a11.47,11.47,0,0,0,20.23.45,11.46,11.46,0,0,0,14.73-15.46Z"/><path class="cls-10" d="M86,53.16A10.44,10.44,0,0,0,71,41.6a13,13,0,0,0-20.84-.79A10.43,10.43,0,0,0,37.05,50a11.47,11.47,0,1,0,14,18.2,11.46,11.46,0,0,0,20.22.45A11.46,11.46,0,0,0,86,53.16Z"/><path class="cls-11" d="M97.23,64.88A6.69,6.69,0,0,0,93.51,66,12.19,12.19,0,0,0,73.39,70.1a12.31,12.31,0,0,0-4.55,1A12.2,12.2,0,0,0,52,69.42a8.47,8.47,0,1,0-7.5,12.41,8.56,8.56,0,0,0,3.05-.57,12.21,12.21,0,0,0,12,10,12.08,12.08,0,0,0,4.82-1A12.2,12.2,0,0,0,85,86.74a12.23,12.23,0,0,0,11.4-8.58,6.82,6.82,0,0,0,.79.08,6.68,6.68,0,0,0,0-13.36Z"/><path class="cls-12" d="M99.93,44.2a6,6,0,0,0-1,.1,9.09,9.09,0,0,0-12.72-3,13.29,13.29,0,0,0,.28-2.7,13,13,0,0,0-26-1.28,9.12,9.12,0,1,0-3.42,17.58l.48,0a9.26,9.26,0,0,0-.18,1.84,9.12,9.12,0,0,0,18.2.77,9.09,9.09,0,0,0,9.39-1.72,9.07,9.07,0,0,0,11.72.41,6.32,6.32,0,0,0,3.16.87,6.41,6.41,0,1,0,0-12.81Z"/><circle class="cls-10" cx="90.74" cy="61.08" r="10.59" transform="translate(-16.61 82.05) rotate(-45)"/><path class="cls-10" d="M85.08,56.6A10.44,10.44,0,0,1,100,45a13,13,0,0,1,20.85-.79A10.42,10.42,0,0,1,134,53.41,11.47,11.47,0,1,1,120,71.61a11.46,11.46,0,0,1-20.22.46,11.61,11.61,0,0,1-4.34.85A11.45,11.45,0,0,1,85.08,56.6Z"/><path class="cls-10" d="M103.68,50.59A10.44,10.44,0,0,1,118.63,39a13,13,0,0,1,20.85-.78,10.39,10.39,0,0,1,13.1,9.16,11.47,11.47,0,1,1-14,18.19,11.46,11.46,0,0,1-20.22.46,11.46,11.46,0,0,1-14.73-15.47Z"/><path class="cls-11" d="M92.41,62.32a6.65,6.65,0,0,1,3.71,1.12,12.21,12.21,0,0,1,20.13,4.1,12.06,12.06,0,0,1,4.54,1,12.21,12.21,0,0,1,16.83-1.65,8.47,8.47,0,1,1,7.5,12.41,8.3,8.3,0,0,1-3-.58,12.22,12.22,0,0,1-16.83,9,12.2,12.2,0,0,1-20.65-3.51,12.22,12.22,0,0,1-11.41-8.58,6.66,6.66,0,1,1-.78-13.27Z"/><path class="cls-12" d="M89.7,41.64a7.28,7.28,0,0,1,1,.09,9.09,9.09,0,0,1,12.73-3,12.78,12.78,0,0,1-.29-2.71,13,13,0,0,1,26-1.28,9.12,9.12,0,1,1,3.42,17.58l-.48,0a9.34,9.34,0,0,1,.19,1.84,9.12,9.12,0,0,1-18.21.77,9.1,9.1,0,0,1-9.38-1.71,9.1,9.1,0,0,1-11.72.41,6.33,6.33,0,0,1-3.17.87,6.41,6.41,0,1,1,0-12.81Z"/><path class="cls-3" d="M99.3,126.58l-3-6.33a22,22,0,0,0-5-6.69l-2.74-2.51a.89.89,0,0,1,.94-1.48h0a21.87,21.87,0,0,1,9.63,7.66l1.89,2.66Z"/><path class="cls-13" d="M100.45,121.63l-.09.35v0l.24-.54.4-1.53-1.89-2.66a21.87,21.87,0,0,0-9.63-7.66.89.89,0,0,0-.94,1.48l.24.22.14,0A21.87,21.87,0,0,1,98.56,119Z"/><path class="cls-13" d="M103.7,129.07l3.62-7.55a26.23,26.23,0,0,1,5.92-8l3.27-3a1.06,1.06,0,0,0-1.12-1.77h0a26.21,26.21,0,0,0-11.49,9.14l-2.24,3.17Z"/><path class="cls-3" d="M102.32,123.17l.11.42v0s-.19-.43-.3-.64l-.46-1.83,2.24-3.17a26.21,26.21,0,0,1,11.49-9.14,1.06,1.06,0,0,1,1.12,1.77l-.29.26a.47.47,0,0,0-.16,0A26.12,26.12,0,0,0,104.57,120Z"/><g class="cls-1"><path class="cls-3" d="M103.82,86.29l1.59,68.35a2.37,2.37,0,0,1-1,2,4.64,4.64,0,0,1-5.43,0,2.38,2.38,0,0,1-1-2l1.72-68.34Z"/></g><path class="cls-13" d="M105.41,154.64l-1.59-68.35h-2.07v71.24a4.43,4.43,0,0,0,2.69-.88A2.37,2.37,0,0,0,105.41,154.64Z"/><circle class="cls-10" cx="136.55" cy="95.92" r="7.87" transform="translate(11.74 206.67) rotate(-76.67)"/><path class="cls-10" d="M140.47,86.9a10.56,10.56,0,0,0-10.31-12.84,10.47,10.47,0,0,0-4.8,1.16,13.13,13.13,0,0,0-21-.79,10.51,10.51,0,0,0-13.24,9.25,11.58,11.58,0,1,0,14.09,18.38,11.58,11.58,0,0,0,20.43.46,11.41,11.41,0,0,0,4.38.87,11.57,11.57,0,0,0,10.5-16.49Z"/><path class="cls-11" d="M140.65,96.31a5.11,5.11,0,0,0-2.84.86,9.35,9.35,0,0,0-15.42,3.14,9.4,9.4,0,0,0-3.49.75A9.33,9.33,0,0,0,106,99.79a6.5,6.5,0,1,0-3.41,9.07,9.36,9.36,0,0,0,12.89,6.88,9.34,9.34,0,0,0,15.82-2.69,9.37,9.37,0,0,0,8.74-6.57,5.8,5.8,0,0,0,.6.06,5.12,5.12,0,0,0,0-10.23Z"/><path class="cls-12" d="M137.44,83a3.68,3.68,0,0,0-.57.06,5.46,5.46,0,0,0-7.64-1.82,8,8,0,0,0,.17-1.63,7.81,7.81,0,0,0-15.58-.76,5.48,5.48,0,1,0-2.06,10.55l.29,0a5.8,5.8,0,0,0-.11,1.11,5.47,5.47,0,0,0,10.93.46,5.47,5.47,0,0,0,5.63-1,5.48,5.48,0,0,0,7,.25,3.84,3.84,0,1,0,1.9-7.17Z"/><circle class="cls-10" cx="116.39" cy="79.73" r="8.89" transform="translate(-21.37 49.29) rotate(-21.95)"/><path class="cls-10" d="M121.14,76a9,9,0,0,0,.21-1.89,8.78,8.78,0,0,0-8.78-8.78,8.61,8.61,0,0,0-4,1,10.93,10.93,0,0,0-17.51-.66,8.39,8.39,0,0,0-2.26-.31,8.79,8.79,0,0,0-8.74,8A9.63,9.63,0,1,0,91.79,88.57a9.63,9.63,0,0,0,17,.38,9.63,9.63,0,0,0,12.37-13Z"/><path class="cls-11" d="M121.86,83.91a4.85,4.85,0,0,0-2.74.84,9,9,0,0,0-14.88,3,9.18,9.18,0,0,0-3.36.72,9,9,0,0,0-12.43-1.22A6.27,6.27,0,1,0,85.15,96a9,9,0,0,0,12.44,6.64,9,9,0,0,0,15.26-2.6,9,9,0,0,0,8.43-6.34,3.68,3.68,0,0,0,.58.06,4.94,4.94,0,0,0,0-9.87Z"/><path class="cls-12" d="M117.39,65.09a4.48,4.48,0,0,0-.64.07,6.18,6.18,0,0,0-5.31-3,6.1,6.1,0,0,0-3.32,1,8.64,8.64,0,0,0,.19-1.84,8.82,8.82,0,0,0-17.6-.87A6.11,6.11,0,0,0,88.39,60a6.19,6.19,0,0,0,0,12.37l.33,0a6.46,6.46,0,0,0-.12,1.25,6.18,6.18,0,0,0,12.34.52,6.17,6.17,0,0,0,6.36-1.16,6.16,6.16,0,0,0,8,.28,4.34,4.34,0,1,0,2.14-8.1Z"/><circle class="cls-10" cx="89.73" cy="94.07" r="8.89" transform="translate(-29.29 41.77) rotate(-22.63)"/><path class="cls-10" d="M94.48,90.31a8.42,8.42,0,0,0,.21-1.89A8.77,8.77,0,0,0,81.93,80.6a10.93,10.93,0,0,0-17.51-.66,8.76,8.76,0,0,0-11,7.7,9.63,9.63,0,1,0,11.72,15.27,9.62,9.62,0,0,0,17,.39,9.63,9.63,0,0,0,12.37-13Z"/><path class="cls-11" d="M95.2,98.26a4.92,4.92,0,0,0-2.74.83,9,9,0,0,0-14.88,3,8.79,8.79,0,0,0-3.36.72,9,9,0,0,0-12.43-1.22,6.29,6.29,0,1,0-3.3,8.74A9,9,0,0,0,70.93,117a9,9,0,0,0,15.26-2.6,9,9,0,0,0,8.43-6.34,5.42,5.42,0,0,0,.58.06,4.94,4.94,0,0,0,0-9.87Z"/><path class="cls-12" d="M89.66,81.88a3.68,3.68,0,0,0-.58.06,5.58,5.58,0,0,0-7.82-1.87,8.2,8.2,0,0,0,.17-1.66,8,8,0,0,0-16-.79,5.61,5.61,0,1,0-2.1,10.81l.3,0a5.35,5.35,0,0,0-.12,1.13,5.61,5.61,0,0,0,11.2.48A5.57,5.57,0,0,0,80.51,89a5.6,5.6,0,0,0,7.21.26,3.86,3.86,0,0,0,1.94.53,3.94,3.94,0,1,0,0-7.87Z"/></g></g></svg>