<svg xmlns="http://www.w3.org/2000/svg" viewBox="0 0 206.29 241.41"><defs><style>.cls-1{isolation:isolate;}.cls-2{fill:#a97c50;}.cls-3{fill:#8b5e3c;}.cls-4{fill:#603e29;}.cls-5{fill:#93cb2f;}.cls-6{fill:#81b329;}.cls-7{fill:#709c24;}.cls-8{fill:#8abf2c;}.cls-9{fill:#7fba19;}.cls-10{fill:#754c29;}.cls-11{fill:#86ba2a;}.cls-12{fill:#74a124;}.cls-13{fill:#93cc2e;}</style></defs><title>Asset 6</title><g id="Layer_2" data-name="Layer 2"><g id="Objects"><g class="cls-1"><polygon class="cls-2" points="206.29 168.17 103.58 227.98 0 168.18 102.91 108.37 206.29 168.17"/><polygon class="cls-3" points="206.29 168.17 206.29 181.61 103.58 241.41 103.58 227.98 206.29 168.17"/><polygon class="cls-4" points="103.58 227.98 103.58 241.41 0 181.61 0 168.18 103.58 227.98"/></g><g class="cls-1"><polygon class="cls-5" points="206.29 158.83 103.58 218.63 0 158.83 102.91 99.03 206.29 158.83"/><polygon class="cls-6" points="206.29 158.83 206.29 172.26 103.58 232.06 103.58 218.63 206.29 158.83"/><polygon class="cls-7" points="103.58 218.63 103.58 232.06 0 172.26 0 158.83 103.58 218.63"/></g><path class="cls-8" d="M100.19,189.43c1.85,1.07,1.86,2.8,0,3.87a7.35,7.35,0,0,1-6.68,0c-1.85-1.07-1.86-2.8,0-3.87A7.35,7.35,0,0,1,100.19,189.43Z"/><path class="cls-8" d="M179.41,153.42c1.85,1.07,1.86,2.8,0,3.87a7.35,7.35,0,0,1-6.68,0c-1.85-1.07-1.86-2.8,0-3.87A7.35,7.35,0,0,1,179.41,153.42Z"/><path class="cls-8" d="M154.74,159.11c1.86,1.07,1.86,2.8,0,3.87a7.35,7.35,0,0,1-6.68,0c-1.85-1.07-1.87-2.8,0-3.87A7.35,7.35,0,0,1,154.74,159.11Z"/><path class="cls-8" d="M37.08,156.27c1.85,1.06,1.86,2.8,0,3.87a7.41,7.41,0,0,1-6.68,0c-1.85-1.07-1.86-2.81,0-3.87A7.37,7.37,0,0,1,37.08,156.27Z"/><path class="cls-8" d="M56.05,163.85c1.85,1.07,1.86,2.81,0,3.87a7.35,7.35,0,0,1-6.68,0c-1.85-1.06-1.86-2.8,0-3.87A7.41,7.41,0,0,1,56.05,163.85Z"/><path class="cls-8" d="M83.6,121.17c1.85,1.07,1.86,2.8,0,3.87a7.35,7.35,0,0,1-6.68,0c-1.85-1.07-1.86-2.8,0-3.87A7.35,7.35,0,0,1,83.6,121.17Z"/><path class="cls-8" d="M132.93,125.91c1.85,1.07,1.86,2.8,0,3.87a7.35,7.35,0,0,1-6.68,0c-1.85-1.07-1.86-2.8,0-3.87A7.35,7.35,0,0,1,132.93,125.91Z"/><path class="cls-8" d="M123.38,194.14c1.85,1.06,1.86,2.8,0,3.87a7.41,7.41,0,0,1-6.68,0c-1.85-1.07-1.86-2.81,0-3.87A7.35,7.35,0,0,1,123.38,194.14Z"/><path class="cls-9" d="M155.27,148.18c-4.46-2-10.37-3-16.19-2.84-.76-1.78-2.65-3.47-5.67-4.84-6-2.7-14.63-3.39-22-2.09h0c-5.68-2.57-14.6-2.76-20.72-.56-8.46-3.25-21.12-3.07-29.06.55-8.37,3.82-8.32,10,.1,13.83a30.09,30.09,0,0,0,6.82,2.08c-6.29,6.14-3.82,13.68,7.35,18.74,14.27,6.47,37.32,6.47,51.49,0,5.17-2.35,8.43-5.25,9.81-8.28,6.45.4,13.21-.51,18.15-2.76C163.74,158.19,163.7,152,155.27,148.18Z"/><path class="cls-3" d="M100.44,33.94l-3.21-3.72a16.54,16.54,0,0,0-4.67-3.72l-2.39-1.29a.58.58,0,0,1,.45-1.07h0a17.69,17.69,0,0,1,8.2,3.78l1.79,1.5Z"/><path class="cls-10" d="M100.48,30.6v.24h0s.06-.25.09-.38l0-1-1.79-1.5a17.69,17.69,0,0,0-8.2-3.78.58.58,0,0,0-.45,1.07l.21.11h.11a17.75,17.75,0,0,1,8.2,3.79Z"/><path class="cls-3" d="M102.83,55.34,106,51.61a16.57,16.57,0,0,1,4.67-3.72l2.38-1.29c.64-.34.29-1.2-.44-1.07h0a17.74,17.74,0,0,0-8.21,3.79l-1.78,1.49Z"/><path class="cls-10" d="M102.78,52v.22s-.06-.25-.1-.37l0-1,1.78-1.49a17.74,17.74,0,0,1,8.21-3.79c.73-.13,1.08.73.44,1.07l-.21.11h-.1a17.72,17.72,0,0,0-8.21,3.78Z"/><path class="cls-3" d="M103.71,99.3l16.48-19,14.55-5.06a.4.4,0,0,0-.2-.77l-13.45,2.28,1.59-14.12a.14.14,0,0,0-.28-.06l-3.93,15.56L103.29,94.65Z"/><path class="cls-10" d="M134.54,74.45l-5.08.86L120,78.59l-16.48,19,.15,1.69,16.48-19,14.55-5.06A.4.4,0,0,0,134.54,74.45Z"/><path class="cls-3" d="M99.09,87.78l-16.48-19L68.07,63.7a.4.4,0,0,1,.19-.77l13.46,2.28-1.6-14.12A.14.14,0,0,1,80.4,51l3.93,15.56L99.52,83.13Z"/><path class="cls-10" d="M68.26,62.93l5.08.86,9.42,3.28,16.49,19-.16,1.69-16.48-19L68.07,63.7A.4.4,0,0,1,68.26,62.93Z"/><path class="cls-3" d="M99,120.54l-3.17-6.6a22.73,22.73,0,0,0-5.18-7l-2.85-2.62a.93.93,0,0,1,1-1.54h0a22.92,22.92,0,0,1,10,8l2,2.78Z"/><path class="cls-10" d="M100.16,115.38l-.1.37,0,0s.16-.38.25-.56l.41-1.6-2-2.78a22.92,22.92,0,0,0-10-8,.93.93,0,0,0-1,1.54l.25.23.14,0a22.9,22.9,0,0,1,10,8Z"/><g class="cls-1"><path class="cls-3" d="M101.5,0a1.74,1.74,0,0,1,1.73,1.7l2.93,157.15a3,3,0,0,1-1.26,2.56,5.91,5.91,0,0,1-7,0,3,3,0,0,1-1.28-2.59L99.75,1.7A1.75,1.75,0,0,1,101.49,0Z"/></g><path class="cls-10" d="M106.16,158.85,103.23,1.7A1.75,1.75,0,0,0,101.49,0h0V162.54a5.54,5.54,0,0,0,3.45-1.13A3,3,0,0,0,106.16,158.85Z"/><path class="cls-11" d="M100.93,21.57a5.21,5.21,0,1,1-5.21-5.21A5.21,5.21,0,0,1,100.93,21.57Z"/><path class="cls-11" d="M98.5,19.37a5.13,5.13,0,0,0-7.35-5.69,6.4,6.4,0,0,0-10.25-.39,5.33,5.33,0,0,0-1.33-.18,5.15,5.15,0,0,0-5.12,4.69,5.64,5.64,0,1,0,6.86,9,5.64,5.64,0,0,0,10,.22,5.62,5.62,0,0,0,7.24-7.6Z"/><path class="cls-12" d="M98.92,24a2.85,2.85,0,0,0-1.6.49,5.28,5.28,0,0,0-8.71,1.77,5.15,5.15,0,0,0-2,.43A5.27,5.27,0,0,0,79.35,26a3.67,3.67,0,1,0-3.24,5.37,3.59,3.59,0,0,0,1.31-.25,5.29,5.29,0,0,0,5.2,4.32A5.21,5.21,0,0,0,84.71,35a5.27,5.27,0,0,0,8.94-1.52,5.27,5.27,0,0,0,4.93-3.71l.34,0a2.89,2.89,0,1,0,0-5.78Z"/><path class="cls-13" d="M95.68,14.43a2,2,0,0,0-.34,0,3.26,3.26,0,0,0-4.58-1.09,5.15,5.15,0,0,0,.1-1,4.69,4.69,0,0,0-9.35-.47,3.33,3.33,0,0,0-1.23-.24,3.29,3.29,0,0,0,0,6.57h.17a3.52,3.52,0,0,0-.06.66,3.28,3.28,0,0,0,6.55.27,3.15,3.15,0,0,0,1.19.23,3.28,3.28,0,0,0,2.19-.84,3.27,3.27,0,0,0,4.22.15,2.34,2.34,0,0,0,1.14.31,2.31,2.31,0,1,0,0-4.61Z"/><circle class="cls-11" cx="125.54" cy="35.1" r="4.45"/><path class="cls-11" d="M127.92,33.22a4.26,4.26,0,0,0,.11-.95,4.39,4.39,0,0,0-6.38-3.91,5.48,5.48,0,0,0-8.76-.33,4.67,4.67,0,0,0-1.13-.15,4.39,4.39,0,0,0-4.37,4,4.82,4.82,0,1,0,5.86,7.64,4.82,4.82,0,0,0,8.49.19,4.8,4.8,0,0,0,6.18-6.49Z"/><path class="cls-12" d="M128.28,37.19a2.46,2.46,0,0,0-1.37.42,4.51,4.51,0,0,0-7.44,1.51,4.72,4.72,0,0,0-1.68.36,4.51,4.51,0,0,0-6.22-.61,3.13,3.13,0,1,0-2.77,4.59,3.24,3.24,0,0,0,1.13-.21,4.52,4.52,0,0,0,6.21,3.32,4.52,4.52,0,0,0,7.64-1.3A4.51,4.51,0,0,0,128,42.1a2.85,2.85,0,0,0,.29,0,2.47,2.47,0,0,0,0-4.94Z"/><path class="cls-13" d="M125.51,29a2.85,2.85,0,0,0-.29,0,2.8,2.8,0,0,0-2.41-1.37,2.75,2.75,0,0,0-1.5.44,3.84,3.84,0,0,0,.09-.83,4,4,0,0,0-8-.4,2.84,2.84,0,0,0-1-.2,2.81,2.81,0,1,0,0,5.61h.14a3.45,3.45,0,0,0-.05.57,2.8,2.8,0,0,0,5.59.23,2.89,2.89,0,0,0,1,.19,2.78,2.78,0,0,0,1.87-.72,2.76,2.76,0,0,0,1.87.73,2.81,2.81,0,0,0,1.73-.6,1.91,1.91,0,0,0,1,.27,2,2,0,1,0,0-3.94Z"/><path class="cls-11" d="M95.37,88.23a6.19,6.19,0,0,0,.16-1.37,6.37,6.37,0,0,0-9.27-5.68,7.95,7.95,0,0,0-12.72-.48,6.3,6.3,0,0,0-1.64-.22,6.37,6.37,0,0,0-6,4.19,4.84,4.84,0,0,0-6.78.7,4.84,4.84,0,1,0-3.7,8.95v.11a4.84,4.84,0,0,0,9.11,2.29,7,7,0,0,0,9.51.66,7,7,0,0,0,12.33.28,6.88,6.88,0,0,0,2.65.52,7,7,0,0,0,6.33-10Z"/><path class="cls-11" d="M98.38,91a6.46,6.46,0,1,1-6.46-6.46A6.46,6.46,0,0,1,98.38,91Z"/><path class="cls-12" d="M95.89,94a3.6,3.6,0,0,0-2,.61,6.55,6.55,0,0,0-10.8,2.2,6.57,6.57,0,0,0-2.44.52,6.53,6.53,0,0,0-9-.89,4.55,4.55,0,1,0-4,6.66,4.47,4.47,0,0,0,1.64-.31,6.56,6.56,0,0,0,9,4.83,6.54,6.54,0,0,0,11.08-1.88,6.56,6.56,0,0,0,6.12-4.61,3,3,0,0,0,.42,0,3.59,3.59,0,1,0,0-7.17Z"/><path class="cls-13" d="M91.87,82.11a3,3,0,0,0-.42,0,4.07,4.07,0,0,0-3.5-2,4,4,0,0,0-2.18.64,6.06,6.06,0,0,0,.13-1.21,5.81,5.81,0,0,0-4.48-5.65,4.55,4.55,0,0,0-8.78.11,5.17,5.17,0,0,0-1.19-.14,4.92,4.92,0,0,0-4.92,4.92,1.23,1.23,0,0,0,0,.2,4.55,4.55,0,1,0,4,7.14,4,4,0,0,0,2.26.7l.21,0a4.49,4.49,0,0,0-.08.83A4.07,4.07,0,0,0,81,88a4,4,0,0,0,4.19-.77,4.07,4.07,0,0,0,5.23.19,2.85,2.85,0,1,0,1.41-5.33Z"/><path class="cls-11" d="M90,45.06a7,7,0,0,0-.08-1.57,7.25,7.25,0,0,0-11.45-4.71,9,9,0,0,0-14.38,1.76,7.06,7.06,0,0,0-1.89,0,7.26,7.26,0,0,0-6.09,7.68,8,8,0,1,0,11.57,11,8,8,0,0,0,13.92-1.92A8,8,0,0,0,90,45.06Z"/><path class="cls-12" d="M85.82,49.61a6.61,6.61,0,0,0-5,4,4.28,4.28,0,0,0-2.14-.23,4.22,4.22,0,0,0-3.15,2.37,5,5,0,0,0-5.59,1.58A7.84,7.84,0,0,0,64,55.89a8.05,8.05,0,0,0-2.71,1,5,5,0,1,0-3.93,7.25A7.9,7.9,0,0,0,73,65.35a5.3,5.3,0,0,0,1.59,0,5,5,0,0,0,4-3.69,4.29,4.29,0,0,0,1.34,0,4.12,4.12,0,0,0,2.07-1,6.63,6.63,0,1,0,3.77-11.09Z"/><path class="cls-13" d="M82,35.54a5.36,5.36,0,0,0-2.29,1A5.53,5.53,0,0,0,71,35.58a5.47,5.47,0,0,0-3.76-.77,5.55,5.55,0,0,0-4.65,5.13A5.35,5.35,0,1,0,64.4,48.1a3.65,3.65,0,0,0,4.49-.27,6.34,6.34,0,0,0,12-2.07,5.26,5.26,0,0,0,2.82.33A5.34,5.34,0,0,0,82,35.54Z"/><path class="cls-11" d="M148.47,58.73a7.25,7.25,0,0,0-9.11-6.37,9,9,0,0,0-14.48.55,7.17,7.17,0,0,0-3.29-.8,7.26,7.26,0,0,0-6.47,4,7.31,7.31,0,1,0,.48,13.34,8,8,0,0,0,9.13,2.27,8,8,0,0,0,14-.32,8,8,0,1,0,9.69-12.64Z"/><path class="cls-13" d="M120.9,50.27a5.32,5.32,0,0,1,2.42.6,5.53,5.53,0,0,1,8.38-2.3,5.49,5.49,0,0,1,3.59-1.35,5.55,5.55,0,0,1,5.41,4.32,5.35,5.35,0,1,1-.47,8.35,3.67,3.67,0,0,1-2.52,1,3.74,3.74,0,0,1-2-.57,6.33,6.33,0,0,1-12.12-.15,5.27,5.27,0,0,1-2.73.78,5.35,5.35,0,0,1,0-10.69Z"/><path class="cls-12" d="M154.43,69.59a5,5,0,0,0-9.77-1.54,7.89,7.89,0,0,0-8.41,1.77,5,5,0,0,0-5.76-.68,4.2,4.2,0,0,0-5.56-1.27,6.62,6.62,0,0,0-11.73,1,5.58,5.58,0,1,0-2.42,10.6,5.55,5.55,0,0,0,4.74-2.65,6.61,6.61,0,0,0,9.28-1.69,4.28,4.28,0,0,0,2.21.63,4.1,4.1,0,0,0,1.31-.23,5,5,0,0,0,4.58,3,5.11,5.11,0,0,0,1.57-.25,7.89,7.89,0,0,0,15.22-3.7A5,5,0,0,0,154.43,69.59Z"/></g></g></svg>